<svg width="68" height="68" viewBox="0 0 68 68" fill="none" xmlns="http://www.w3.org/2000/svg">
<path d="M58.0728 15.9423C60.5545 16.8144 62.3336 19.1786 62.3336 21.9584V50.2917C62.3336 56.9422 56.9424 62.3334 50.292 62.3334H21.9587C19.1789 62.3334 16.8147 60.5543 15.9426 58.0726L21.8849 58.0821L50.292 58.0834C54.5952 58.0834 58.0836 54.595 58.0836 50.2917V21.9584L58.0724 21.814L58.0728 15.9423ZM48.8663 5.66675C52.3871 5.66675 55.2413 8.52093 55.2413 12.0417V48.866C55.2413 52.3869 52.3871 55.241 48.8663 55.241H12.042C8.52118 55.241 5.66699 52.3869 5.66699 48.866V12.0417C5.66699 8.52093 8.52118 5.66675 12.042 5.66675H48.8663ZM38.1644 21.1641L27.1469 32.1816L24.367 28.4751C23.6628 27.5362 22.3309 27.3459 21.392 28.0501C20.4531 28.7542 20.2628 30.0862 20.967 31.0251L25.217 36.6917C25.9929 37.7263 27.5052 37.8337 28.4196 36.9193L41.1696 24.1693C41.9994 23.3395 41.9994 21.994 41.1696 21.1641C40.3397 20.3343 38.9942 20.3343 38.1644 21.1641Z" fill="#6D57E4"/>
</svg>
