<svg width="60" height="74" viewBox="0 0 60 74" fill="none" xmlns="http://www.w3.org/2000/svg">
<path d="M56.8662 12.7959H3.13376C1.40343 12.7959 0 14.5265 0 16.6609V57.3391C0 59.4733 1.40343 61.204 3.13376 61.204H56.8661C58.5966 61.204 59.9999 59.4733 59.9999 57.3391V16.6609C60 14.5265 58.5966 12.7959 56.8662 12.7959ZM54.8114 51.1569C55.6611 52.0276 55.7782 53.5827 55.073 54.6305C54.6776 55.2182 54.1072 55.5218 53.5332 55.5218C53.0829 55.5218 52.6298 55.3348 52.2568 54.9532L38.1524 40.5145L31.2773 47.5519C30.9071 47.9312 30.4532 48.1203 30 48.1203C29.5469 48.1203 29.0928 47.9312 28.7226 47.5519L21.8477 40.5145L7.7432 54.9532C6.89449 55.824 5.63387 55.6807 4.92663 54.6305C4.22182 53.5827 4.33889 52.0276 5.18857 51.1569L18.716 37.3083L5.18857 23.4598C4.33889 22.5891 4.22182 21.034 4.92663 19.9862C5.63387 18.9384 6.89449 18.7951 7.7432 19.6635L29.9999 42.4477L52.2568 19.6633C53.1064 18.7949 54.3679 18.9383 55.073 19.9861C55.7782 21.034 55.661 22.5889 54.8114 23.4597L41.284 37.3082L54.8114 51.1569Z" fill="#6D57E4"/>
</svg>
