<svg width="58" height="58" viewBox="0 0 58 58" fill="none" xmlns="http://www.w3.org/2000/svg">
<path fill-rule="evenodd" clip-rule="evenodd" d="M29.0211 2.04394C4.31078 1.67448 -7.05432 31.3856 10.5301 47.5368C10.9692 47.9324 11.2348 48.4805 11.2569 49.0715L11.4036 53.8664C11.4523 55.3958 13.0311 56.3888 14.43 55.7757L19.7782 53.4163C20.2335 53.2156 20.7381 53.1779 21.2155 53.3078C38.2408 58.1792 56.3026 46.233 55.9783 28.1938C55.9789 13.1689 44.2084 2.04394 29.0211 2.04394ZM45.547 22.0186L37.4618 34.8447C36.1771 36.8828 33.4192 37.392 31.4919 35.9467L25.062 31.1228C24.4693 30.6797 23.6607 30.6855 23.0738 31.1286L14.3894 37.7192C13.2323 38.5996 11.7145 37.2093 12.4952 35.9803L20.5815 23.1536C21.8662 21.1155 24.6241 20.6063 26.5515 22.0516L32.9813 26.8755C33.5741 27.3186 34.3826 27.3128 34.9696 26.8697L43.6533 20.2791C44.811 19.3993 46.3283 20.789 45.547 22.0186Z" fill="#1F6BF6"/>
</svg>
