<svg width="58" height="58" viewBox="0 0 58 58" fill="none" xmlns="http://www.w3.org/2000/svg">
<path d="M14.7073 57.7949C11.258 57.638 9.38425 57.064 8.13796 56.5779C6.48658 55.9349 5.30924 55.1696 4.06984 53.9319C2.83045 52.6942 2.06336 51.5169 1.42384 49.8655C0.937736 48.6192 0.363717 46.7454 0.206854 43.2962C0.0344756 39.5676 0 38.4489 0 29.0026C0 19.5563 0.0379231 18.4393 0.20513 14.7073C0.361994 11.258 0.93946 9.3877 1.42212 8.13796C2.06509 6.48658 2.83217 5.30924 4.06812 4.06812C5.30579 2.83045 6.48313 2.06164 8.13624 1.42212C9.38253 0.936012 11.2563 0.361994 14.7056 0.20513C18.4358 0.0344756 19.5563 0 28.9991 0C38.4454 0 39.5625 0.0379231 43.2944 0.20513C46.7437 0.361994 48.614 0.93946 49.8638 1.42212C51.5151 2.06164 52.6925 2.83045 53.9319 4.06812C55.1713 5.30579 55.9349 6.48486 56.5779 8.13624C57.064 9.38253 57.638 11.2563 57.7949 14.7056C57.9655 18.4375 58 19.5546 58 29.0009C58 38.4437 57.9655 39.5642 57.7949 43.2962C57.638 46.7454 57.0605 48.6192 56.5779 49.8655C55.9349 51.5169 55.1696 52.6942 53.9319 53.9319C52.6942 55.1696 51.5151 55.9349 49.8638 56.5779C48.6175 57.064 46.7437 57.638 43.2944 57.7949C39.5659 57.9655 38.4454 58 28.9991 58C19.5563 58 18.4358 57.9672 14.7073 57.7949" fill="url(#paint0_radial_1777_6327)"/>
<path d="M14.7073 57.7949C11.258 57.638 9.38425 57.064 8.13796 56.5779C6.48658 55.9349 5.30924 55.1696 4.06984 53.9319C2.83045 52.6942 2.06336 51.5169 1.42384 49.8655C0.937736 48.6192 0.363717 46.7454 0.206854 43.2962C0.0344756 39.5676 0 38.4489 0 29.0026C0 19.5563 0.0379231 18.4393 0.20513 14.7073C0.361994 11.258 0.93946 9.3877 1.42212 8.13796C2.06509 6.48658 2.83217 5.30924 4.06812 4.06812C5.30579 2.83045 6.48313 2.06164 8.13624 1.42212C9.38253 0.936012 11.2563 0.361994 14.7056 0.20513C18.4358 0.0344756 19.5563 0 28.9991 0C38.4454 0 39.5625 0.0379231 43.2944 0.20513C46.7437 0.361994 48.614 0.93946 49.8638 1.42212C51.5151 2.06164 52.6925 2.83045 53.9319 4.06812C55.1713 5.30579 55.9349 6.48486 56.5779 8.13624C57.064 9.38253 57.638 11.2563 57.7949 14.7056C57.9655 18.4375 58 19.5546 58 29.0009C58 38.4437 57.9655 39.5642 57.7949 43.2962C57.638 46.7454 57.0605 48.6192 56.5779 49.8655C55.9349 51.5169 55.1696 52.6942 53.9319 53.9319C52.6942 55.1696 51.5151 55.9349 49.8638 56.5779C48.6175 57.064 46.7437 57.638 43.2944 57.7949C39.5659 57.9655 38.4454 58 28.9991 58C19.5563 58 18.4358 57.9672 14.7073 57.7949" fill="url(#paint1_radial_1777_6327)"/>
<path d="M21.8787 29.1237C21.8787 25.1571 25.0933 21.9407 29.0599 21.9407C33.0265 21.9407 36.2429 25.1571 36.2429 29.1237C36.2429 33.0902 33.0265 36.3066 29.0599 36.3066C25.0933 36.3066 21.8787 33.0902 21.8787 29.1237V29.1237ZM17.9957 29.1237C17.9957 35.2345 22.9491 40.1879 29.0599 40.1879C35.1707 40.1879 40.1242 35.2345 40.1242 29.1237C40.1242 23.0129 35.1707 18.0594 29.0599 18.0594C22.9491 18.0594 17.9959 23.0125 17.9959 29.1237H17.9957ZM37.9767 17.6207C37.9765 18.1321 38.1279 18.6321 38.4119 19.0574C38.6958 19.4827 39.0995 19.8143 39.5719 20.0102C40.0443 20.2061 40.5642 20.2575 41.0658 20.1579C41.5674 20.0584 42.0282 19.8123 42.39 19.4508C42.7517 19.0893 42.9982 18.6287 43.0982 18.1272C43.1981 17.6257 43.1471 17.1058 42.9516 16.6332C42.7561 16.1607 42.4248 15.7567 41.9997 15.4724C41.5747 15.1881 41.0748 15.0363 40.5634 15.0361H40.5624C39.8769 15.0364 39.2196 15.3088 38.7347 15.7934C38.2499 16.278 37.9773 16.9352 37.9767 17.6207V17.6207ZM20.3549 46.6628C18.2541 46.5671 17.1122 46.2172 16.3534 45.9215C15.3474 45.5299 14.6297 45.0634 13.875 44.3098C13.1203 43.5562 12.6532 42.8391 12.2633 41.8331C11.9675 41.0746 11.6175 39.9324 11.522 37.8317C11.4176 35.5604 11.3967 34.8782 11.3967 29.124C11.3967 23.3699 11.4193 22.6895 11.522 20.4163C11.6177 18.3156 11.9702 17.1756 12.2633 16.4149C12.6549 15.4089 13.1214 14.6911 13.875 13.9365C14.6286 13.1818 15.3457 12.7147 16.3534 12.3247C17.1119 12.0289 18.2541 11.679 20.3549 11.5835C22.6261 11.4791 23.3084 11.4582 29.0599 11.4582C34.8115 11.4582 35.4945 11.4804 37.7676 11.5839C39.8684 11.6795 41.0083 12.032 41.769 12.3251C42.775 12.715 43.4928 13.1832 44.2475 13.9368C45.0021 14.6905 45.4676 15.4093 45.8592 16.4153C46.155 17.1737 46.5049 18.3159 46.6004 20.4167C46.7049 22.6898 46.7257 23.3702 46.7257 29.1243C46.7257 34.8785 46.7049 35.5589 46.6004 37.832C46.5047 39.9328 46.1531 41.0746 45.8592 41.8334C45.4676 42.8394 45.0011 43.5572 44.2475 44.3102C43.4938 45.0631 42.775 45.5302 41.769 45.9219C41.0105 46.2177 39.8684 46.5676 37.7676 46.6631C35.4964 46.7676 34.8141 46.7884 29.0599 46.7884C23.3058 46.7884 22.6254 46.7676 20.3549 46.6631V46.6628ZM20.1764 7.70691C17.8826 7.81137 16.3152 8.17508 14.9463 8.70773C13.5295 9.25779 12.3286 9.99574 11.1294 11.1931C9.93012 12.3904 9.19407 13.5915 8.64401 15.01C8.11136 16.3798 7.74765 17.9463 7.64319 20.2402C7.537 22.5376 7.5127 23.2721 7.5127 29.1237C7.5127 34.9752 7.537 35.7097 7.64319 38.0072C7.74765 40.3012 8.11136 41.8676 8.64401 43.2373C9.19407 44.654 9.9303 45.8574 11.1294 47.0542C12.3284 48.2511 13.5278 48.988 14.9463 49.5396C16.3178 50.0722 17.8826 50.4359 20.1764 50.5404C22.4751 50.6449 23.2084 50.6709 29.0599 50.6709C34.9115 50.6709 35.646 50.6466 37.9434 50.5404C40.2374 50.4359 41.8038 50.0722 43.1735 49.5396C44.5903 48.988 45.7913 48.2516 46.9905 47.0542C48.1897 45.8569 48.9242 44.654 49.4759 43.2373C50.0085 41.8676 50.3739 40.301 50.4767 38.0072C50.5811 35.708 50.6054 34.9752 50.6054 29.1237C50.6054 23.2721 50.5811 22.5376 50.4767 20.2402C50.3722 17.9462 50.0085 16.3789 49.4759 15.01C48.9242 13.5933 48.1878 12.3923 46.9905 11.1931C45.7932 9.99384 44.5903 9.25779 43.1753 8.70773C41.8038 8.17508 40.2373 7.80964 37.9452 7.70691C35.6474 7.60193 34.9132 7.57642 29.0625 7.57642C23.2118 7.57642 22.476 7.60072 20.1773 7.70691" fill="white"/>
<defs>
<radialGradient id="paint0_radial_1777_6327" cx="0" cy="0" r="1" gradientUnits="userSpaceOnUse" gradientTransform="translate(3.7537 56.7294) scale(73.6385)">
<stop offset="0.09" stop-color="#FA8F21"/>
<stop offset="0.78" stop-color="#D82D7E"/>
</radialGradient>
<radialGradient id="paint1_radial_1777_6327" cx="0" cy="0" r="1" gradientUnits="userSpaceOnUse" gradientTransform="translate(40.1746 54.867) scale(64.8026)">
<stop offset="0.64" stop-color="#8C3AAA" stop-opacity="0"/>
<stop offset="1" stop-color="#8C3AAA"/>
</radialGradient>
</defs>
</svg>
