<svg width="58" height="58" viewBox="0 0 58 58" fill="none" xmlns="http://www.w3.org/2000/svg">
<path d="M52.4589 17.6247L49.165 14.3309C50.0858 13.9901 50.7504 13.1225 50.7504 12.0834V2.41663C50.7503 1.08263 49.6677 0 48.3337 0H38.667C37.3329 0 36.2503 1.08263 36.2503 2.41663V12.0833C36.2503 13.1224 36.9149 13.99 37.8332 14.3308L34.5417 17.6246C33.5968 18.5695 33.5968 20.0969 34.5417 21.0418C35.0129 21.513 35.6315 21.7499 36.2503 21.7499C36.869 21.7499 37.4877 21.513 37.9589 21.0418L40.97 18.0306C40.3997 24.1643 35.2812 29 29.0003 29C24.2684 29 19.9909 30.9575 16.9169 34.0991V17.9171L20.0417 21.0419C20.5129 21.5131 21.1315 21.75 21.7503 21.75C22.3689 21.75 22.9877 21.5131 23.4589 21.0419C24.4038 20.097 24.4038 18.5696 23.4589 17.6247L20.165 14.3309C21.0858 13.9901 21.7504 13.1225 21.7504 12.0834V2.41663C21.7503 1.08263 20.6677 0 19.3337 0H9.66692C8.33292 0 7.25029 1.08263 7.25029 2.41663V12.0833C7.25029 13.1224 7.91491 13.99 8.83317 14.3308L5.54167 17.6246C4.59679 18.5695 4.59679 20.0969 5.54167 21.0418C6.01292 21.5131 6.63166 21.75 7.25029 21.75C7.86892 21.75 8.48766 21.5131 8.95891 21.0419L12.0837 17.9171V43.5H9.66692C8.33292 43.5 7.25029 44.5826 7.25029 45.9166V55.5833C7.25029 56.9174 8.33292 58 9.66692 58H19.3335C20.6675 58 21.7502 56.9174 21.7502 55.5834V45.9167C21.7502 44.5827 20.6675 43.5001 19.3335 43.5001H17.1609C18.2847 37.9925 23.1663 33.8335 29.0002 33.8335C38.0071 33.8335 45.3707 26.7526 45.8685 17.869L49.0417 21.0421C49.5129 21.5134 50.1315 21.7502 50.7503 21.7502C51.369 21.7502 51.9877 21.5134 52.4589 21.0421C53.4038 20.097 53.4038 18.5696 52.4589 17.6247Z" fill="#6D57E4"/>
</svg>
