<svg width="68" height="68" viewBox="0 0 68 68" fill="none" xmlns="http://www.w3.org/2000/svg">
<path d="M44.625 6.375H23.375C12.75 6.375 4.25 14.875 4.25 25.5V61.625C4.25 62.475 4.675 63.1125 5.525 63.5375C5.7375 63.75 6.1625 63.75 6.375 63.75C6.8 63.75 7.4375 63.5375 7.8625 63.325C15.3 56.7375 24.8625 53.125 34.6375 53.125H44.625C55.25 53.125 63.75 44.625 63.75 34V25.5C63.75 14.875 55.25 6.375 44.625 6.375ZM26.9875 31.2375C26.775 31.45 26.5625 31.6625 26.35 31.6625C26.1375 31.875 25.7125 31.875 25.5 31.875C24.8625 31.875 24.4375 31.6625 24.0125 31.2375C23.5875 30.8125 23.375 30.3875 23.375 29.75C23.375 29.5375 23.375 29.1125 23.5875 28.9C23.8 28.6875 23.8 28.475 24.0125 28.2625C24.65 27.625 25.5 27.4125 26.35 27.8375C26.5625 28.05 26.775 28.05 26.9875 28.2625C27.2 28.475 27.4125 28.6875 27.4125 28.9C27.625 29.1125 27.625 29.5375 27.625 29.75C27.625 30.3875 27.4125 30.8125 26.9875 31.2375ZM35.4875 31.2375C35.275 31.2375 35.275 31.45 35.275 31.45C35.0625 31.45 35.0625 31.6625 34.85 31.6625C34.6375 31.6625 34.6375 31.6625 34.425 31.875C34.2125 31.875 34.2125 31.875 34 31.875C33.3625 31.875 32.9375 31.6625 32.5125 31.2375C32.0875 30.8125 31.875 30.3875 31.875 29.75C31.875 29.1125 32.0875 28.6875 32.5125 28.2625C32.725 28.05 32.9375 27.8375 33.15 27.8375C34 27.4125 34.85 27.625 35.4875 28.2625C35.9125 28.6875 36.125 29.1125 36.125 29.75C36.125 30.3875 35.9125 30.8125 35.4875 31.2375ZM44.4125 30.6C44.2 30.8125 44.2 31.025 43.9875 31.2375C43.775 31.45 43.5625 31.6625 43.35 31.6625C43.1375 31.875 42.7125 31.875 42.5 31.875C42.2875 31.875 41.8625 31.875 41.65 31.6625C41.4375 31.45 41.225 31.45 41.0125 31.2375C40.8 31.025 40.5875 30.8125 40.5875 30.6C40.5875 30.3875 40.375 29.9625 40.375 29.75C40.375 29.5375 40.375 29.1125 40.5875 28.9C40.8 28.6875 40.8 28.475 41.0125 28.2625C41.225 28.05 41.4375 27.8375 41.65 27.8375C42.075 27.625 42.7125 27.625 43.35 27.8375C43.5625 28.05 43.775 28.05 43.9875 28.2625C44.2 28.475 44.4125 28.6875 44.4125 28.9C44.4125 29.1125 44.625 29.5375 44.625 29.75C44.625 29.9625 44.625 30.3875 44.4125 30.6Z" fill="#6D57E4"/>
</svg>
