<svg width="58" height="58" viewBox="0 0 58 58" fill="none" xmlns="http://www.w3.org/2000/svg">
<path d="M17.638 36.284C17.9552 38.9234 20.4587 41.0871 23.1888 41.0871H33.1349C35.865 41.0871 38.3685 38.9234 38.6857 36.284L40.0111 25.341C40.3283 22.7016 40.3283 18.3855 40.0111 15.7348L38.6857 4.7918C38.3572 2.15234 35.8537 0 33.1236 0H23.1775C20.4474 0 17.9439 2.16367 17.6267 4.80313L16.3126 15.7348C15.9955 18.3742 15.9955 22.7016 16.3126 25.341L17.638 36.284ZM47.4763 19.3371H42.6505C42.6959 21.5461 42.6166 23.891 42.4013 25.6355L41.0759 36.5785C40.6115 40.4641 37.1224 43.5 33.1236 43.5H23.1775C19.19 43.5 15.7009 40.4527 15.2251 36.5785L13.8998 25.6355C13.6845 23.891 13.6052 21.5461 13.6505 19.3371H8.82475C8.77944 21.75 8.87007 24.2762 9.10796 26.2133L10.4333 37.1562C11.1923 43.4207 16.7884 48.3258 23.1775 48.3258H25.7376V53.1629H18.4876V58H37.8248V53.1629H30.5748V48.3258H33.1349C39.5353 48.3258 45.1314 43.4094 45.8791 37.1449L47.2044 26.1906C47.431 24.2648 47.5216 21.7387 47.4763 19.3371Z" fill="#6D57E4"/>
</svg>
