<svg width="58" height="58" viewBox="0 0 58 58" fill="none" xmlns="http://www.w3.org/2000/svg">
<path d="M0 58L4.988 43.037C2.457 38.78 1 33.812 1 28.5C1 12.76 13.76 0 29.5 0C45.24 0 58 12.76 58 28.5C58 44.24 45.24 57 29.5 57C24.711 57 20.201 55.813 16.24 53.727L0 58Z" fill="#2CB742"/>
<path d="M47.6828 37.985C46.3668 35.498 41.5139 32.654 41.5139 32.654C40.4159 32.028 39.0909 31.958 38.4649 33.074C38.4649 33.074 36.8879 34.965 36.4869 35.237C34.6549 36.478 32.9579 36.43 31.2449 34.717L27.2639 30.736L23.2829 26.755C21.5699 25.042 21.5219 23.345 22.7629 21.513C23.0349 21.112 24.9259 19.535 24.9259 19.535C26.0419 18.908 25.9719 17.584 25.3459 16.486C25.3459 16.486 22.5019 11.633 20.0149 10.317C18.9569 9.75696 17.6579 9.95296 16.8119 10.799L15.0539 12.557C9.47685 18.134 12.2229 24.43 17.7999 30.007L22.8969 35.104L27.9939 40.201C33.5709 45.778 39.8669 48.524 45.4439 42.947L47.2019 41.189C48.0479 40.341 48.2428 39.042 47.6828 37.985Z" fill="white"/>
</svg>
