<svg width="64" height="64" viewBox="0 0 64 64" fill="none" xmlns="http://www.w3.org/2000/svg">
<path d="M30.4 3.37271C27.136 4.05431 24.0282 6.80311 21.5648 11.2767C20.8307 12.6098 20.1658 14.0895 19.5802 15.685C22.8839 16.5324 26.5389 17.0604 30.4 17.1749V3.37271ZM33.6 3.37271V17.1749C37.4611 17.0597 41.1162 16.5324 44.4199 15.685C43.8343 14.0895 43.1693 12.6098 42.4352 11.2761C39.9712 6.80247 36.8634 4.05431 33.6 3.37207V3.37271ZM22.1363 4.92791C17.8835 6.4778 14.0562 9.00882 10.9651 12.3154C11.0695 12.3749 11.1699 12.4357 11.2762 12.4946C12.8352 13.3522 14.5914 14.1164 16.5024 14.7692C17.1578 12.9637 17.9123 11.2741 18.7616 9.73175C19.7536 7.92951 20.8858 6.30775 22.1363 4.92791V4.92791ZM41.8637 4.92791C43.1143 6.30775 44.2464 7.92951 45.2391 9.73175C46.0877 11.2741 46.8423 12.9638 47.4963 14.7705C49.408 14.1177 51.1648 13.3529 52.7239 12.494C52.8307 12.4357 52.9306 12.3749 53.0349 12.3154C49.9437 9.00905 46.1164 6.47826 41.8637 4.92855V4.92791ZM8.88641 14.8063C5.51112 19.335 3.54889 24.7599 3.24609 30.3999H13.6832C13.8067 25.9039 14.4493 21.6511 15.5207 17.8226C13.4291 17.1103 11.4874 16.2649 9.73313 15.2985C9.44449 15.1397 9.16545 14.9721 8.88705 14.8057L8.88641 14.8063ZM55.1136 14.8063C54.8352 14.9727 54.5568 15.1391 54.2675 15.2991C52.512 16.2655 50.5683 17.1116 48.4755 17.8239C49.5431 21.6524 50.1831 25.9052 50.3059 30.3999H60.7539C60.4511 24.7599 58.4889 19.335 55.1136 14.8063V14.8063ZM18.5965 18.741C17.6186 22.2591 17.0093 26.2098 16.8851 30.3999H30.4V20.3673C26.2042 20.2521 22.2221 19.6857 18.5965 18.7417V18.741ZM45.4035 18.741C41.7786 19.685 37.7952 20.2514 33.6 20.3666V30.3999H47.1149C46.9907 26.2098 46.3815 22.2591 45.4035 18.741ZM3.24673 33.5999C3.54935 39.2399 5.51134 44.6647 8.88641 49.1935C9.16481 49.0271 9.44321 48.8607 9.73249 48.7007C11.4861 47.7356 13.4291 46.8895 15.52 46.1759C14.4487 42.3481 13.8061 38.0959 13.6826 33.5999H3.24609H3.24673ZM16.8851 33.5999C17.0093 37.7881 17.6179 41.7369 18.5952 45.2537C22.2208 44.3071 26.2029 43.7381 30.4 43.6223V33.5999H16.8851ZM33.6 33.5999V43.6223C37.7971 43.7375 41.7792 44.3071 45.4048 45.2537C46.3821 41.7369 46.9907 37.7881 47.1149 33.5999H33.6ZM50.3072 33.5999C50.1843 38.0946 49.5443 42.3468 48.4768 46.1746C50.569 46.8882 52.5127 47.7349 54.2675 48.7013C54.5562 48.8601 54.8352 49.0277 55.1136 49.1941C58.489 44.6653 60.4513 39.2402 60.7539 33.5999H50.3072ZM30.4 46.8249C26.5389 46.9401 22.8839 47.4674 19.5802 48.3148C20.1658 49.9103 20.8307 51.39 21.5648 52.7237C24.0288 57.1973 27.1367 59.9455 30.4 60.6277V46.8242V46.8249ZM33.6 46.8249V60.6271C36.864 59.9455 39.9719 57.1967 42.4352 52.7231C43.1693 51.39 43.8343 49.9103 44.4199 48.3148C41.1162 47.4674 37.4611 46.9394 33.6 46.8249V46.8249ZM47.4963 49.2287C46.8416 51.0348 46.0883 52.725 45.2391 54.2674C44.2464 56.0697 43.1143 57.6914 41.8637 59.0713C46.1165 57.5214 49.9438 54.9904 53.0349 51.6837C52.9306 51.6242 52.8301 51.5634 52.7239 51.5045C51.1648 50.6469 49.408 49.8815 47.4963 49.2287ZM16.5024 49.23C14.5914 49.8828 12.8352 50.6463 11.2762 51.5052C11.1693 51.5634 11.0695 51.6242 10.9651 51.6837C14.0562 54.9904 17.8835 57.5214 22.1363 59.0713C20.8858 57.6914 19.7536 56.0697 18.761 54.2674C17.9123 52.725 17.1578 51.0354 16.5024 49.23V49.23Z" fill="#6D57E4"/>
</svg>
