<svg width="18" height="19" viewBox="0 0 18 19" fill="none" xmlns="http://www.w3.org/2000/svg">
<g clip-path="url(#clip0_1341_5752)">
<path d="M0.385816 8.95163C0.385395 10.4741 0.783192 11.9606 1.5396 13.2709L0.313477 17.7476L4.89489 16.5464C6.16204 17.2362 7.5818 17.5977 9.02456 17.5978H9.02835C13.7912 17.5978 17.6682 13.7221 17.6703 8.95844C17.6712 6.65011 16.773 4.4795 15.1413 2.84645C13.5098 1.21355 11.3399 0.313798 9.028 0.312744C4.26462 0.312744 0.387853 4.18818 0.385886 8.95163" fill="url(#paint0_linear_1341_5752)"/>
<path d="M0.0771019 8.94875C0.0766103 10.526 0.488665 12.0657 1.27204 13.4228L0.00195312 18.0601L4.74764 16.8158C6.05523 17.5287 7.52744 17.9046 9.0255 17.9052H9.02936C13.9631 17.9052 17.9794 13.8901 17.9815 8.95592C17.9823 6.56464 17.0519 4.316 15.3618 2.62445C13.6715 0.93311 11.4241 0.000983256 9.02936 0C4.09482 0 0.0791387 4.01449 0.0771722 8.94875H0.0771019ZM2.90326 13.1891L2.72606 12.9078C1.98118 11.7234 1.58801 10.3547 1.58858 8.94932C1.59019 4.84808 4.92792 1.5114 9.03217 1.5114C11.0198 1.51225 12.8877 2.28705 14.2926 3.69283C15.6975 5.09874 16.4705 6.96763 16.47 8.95536C16.4682 13.0566 13.1304 16.3937 9.02936 16.3937H9.02641C7.69108 16.393 6.38146 16.0344 5.23933 15.3567L4.96753 15.1955L2.15135 15.9339L2.90326 13.189V13.1891Z" fill="url(#paint1_linear_1341_5752)"/>
<path d="M6.79182 5.20761C6.62425 4.83517 6.44789 4.82765 6.28854 4.82112C6.15804 4.8155 6.00887 4.81593 5.85984 4.81593C5.71066 4.81593 5.46829 4.87204 5.26342 5.09573C5.05834 5.31963 4.48047 5.8607 4.48047 6.96118C4.48047 8.06172 5.28203 9.12526 5.39377 9.27464C5.50565 9.42374 6.94121 11.7543 9.21477 12.6509C11.1043 13.396 11.4888 13.2478 11.8989 13.2105C12.3091 13.1732 13.2224 12.6695 13.4087 12.1472C13.5952 11.625 13.5952 11.1773 13.5393 11.0838C13.4834 10.9906 13.3342 10.9346 13.1105 10.8228C12.8867 10.7109 11.787 10.1698 11.582 10.0951C11.377 10.0205 11.2278 9.98329 11.0787 10.2073C10.9295 10.4309 10.5012 10.9346 10.3706 11.0838C10.2402 11.2333 10.1096 11.2519 9.88599 11.14C9.66216 11.0278 8.94178 10.7919 8.08712 10.0299C7.42216 9.43702 6.97323 8.70484 6.84274 8.48087C6.71225 8.25725 6.82876 8.13603 6.94093 8.02457C7.04143 7.92435 7.16469 7.76338 7.27664 7.63281C7.38817 7.50218 7.42539 7.40898 7.49998 7.25981C7.57463 7.11049 7.53727 6.97986 7.48144 6.86798C7.42539 6.7561 6.99072 5.64994 6.79182 5.20768" fill="white"/>
</g>
<defs>
<linearGradient id="paint0_linear_1341_5752" x1="8.99187" y1="17.7476" x2="8.99187" y2="0.312744" gradientUnits="userSpaceOnUse">
<stop stop-color="#1FAF38"/>
<stop offset="1" stop-color="#60D669"/>
</linearGradient>
<linearGradient id="paint1_linear_1341_5752" x1="8.99172" y1="18.0601" x2="8.99172" y2="0" gradientUnits="userSpaceOnUse">
<stop stop-color="#F9F9F9"/>
<stop offset="1" stop-color="white"/>
</linearGradient>
<clipPath id="clip0_1341_5752">
<rect width="17.9841" height="18.12" fill="white"/>
</clipPath>
</defs>
</svg>
