<?xml version="1.0" encoding="utf-8"?>
<!-- Generator: Adobe Illustrator 16.0.0, SVG Export Plug-In . SVG Version: 6.00 Build 0)  -->
<!DOCTYPE svg PUBLIC "-//W3C//DTD SVG 1.1//EN" "http://www.w3.org/Graphics/SVG/1.1/DTD/svg11.dtd">
<svg version="1.1"
	 id="svg2" xmlns:inkscape="http://www.inkscape.org/namespaces/inkscape" xmlns:sodipodi="http://sodipodi.sourceforge.net/DTD/sodipodi-0.dtd" xmlns:rdf="http://www.w3.org/1999/02/22-rdf-syntax-ns#" xmlns:svg="http://www.w3.org/2000/svg" xmlns:cc="http://web.resource.org/cc/" xmlns:dc="http://purl.org/dc/elements/1.1/" sodipodi:docbase="C:\Documents and Settings\ltljltlj\Desktop\Signs\Guide Signs" sodipodi:version="0.32" inkscape:version="0.44" sodipodi:docname="Handicapped Accessible sign (Outline).svg"
	 xmlns="http://www.w3.org/2000/svg" xmlns:xlink="http://www.w3.org/1999/xlink" x="0px" y="0px" width="451px" height="451px"
	 viewBox="0 0 451 451" enable-background="new 0 0 451 451" xml:space="preserve">
<sodipodi:namedview  height="451px" width="451px" inkscape:document-units="px" inkscape:current-layer="layer1" inkscape:window-y="-4" inkscape:window-x="-4" inkscape:pageshadow="2" inkscape:pageopacity="0.0" inkscape:window-height="968" inkscape:window-width="1280" inkscape:cy="225.5" inkscape:cx="225.5" inkscape:zoom="1.7117517" guidetolerance="10" gridtolerance="10000" pagecolor="#ffffff" bordercolor="#666666" objecttolerance="10" id="base" borderopacity="1.0">
	</sodipodi:namedview>
<g>
	<g>
		<defs>
			<rect id="SVGID_1_" y="0.5" width="451" height="450.5"/>
		</defs>
		<clipPath id="SVGID_2_">
			<use xlink:href="#SVGID_1_"  overflow="visible"/>
		</clipPath>
		<path id="rect1872" clip-path="url(#SVGID_2_)" fill="#FFFFFF" stroke="#000000" d="M38,0.5h375c20.775,0,37.5,16.725,37.5,37.5
			v375c0,20.775-16.725,37.5-37.5,37.5H38c-20.775,0-37.5-16.725-37.5-37.5V38C0.5,17.225,17.225,0.5,38,0.5z"/>
	</g>
	<g>
		<defs>
			<rect id="SVGID_3_" y="0.5" width="451" height="450.5"/>
		</defs>
		<clipPath id="SVGID_4_">
			<use xlink:href="#SVGID_3_"  overflow="visible"/>
		</clipPath>
		<path id="rect2760" clip-path="url(#SVGID_4_)" fill="#003F87" d="M38,13h375c13.85,0,25,11.15,25,25v375c0,13.85-11.15,25-25,25
			H38c-13.85,0-25-11.15-25-25V38C13,24.15,24.15,13,38,13z"/>
	</g>
	<g>
		<defs>
			<rect id="SVGID_5_" y="0.5" width="451" height="450.5"/>
		</defs>
		<clipPath id="SVGID_6_">
			<use xlink:href="#SVGID_5_"  overflow="visible"/>
		</clipPath>
		<g clip-path="url(#SVGID_6_)">
			<path fill="#FFFFFF" d="M299.816,44.264c7.568-5.321,17.729-8.346,28.608-6.4c7.479,1.338,13.424,4.58,18.258,9.035
				c7.216,6.649,11.979,15.999,12.233,27.292c0.499,22.133-16.917,39.711-40.654,38.208c-11.316-0.716-19.488-5.664-25.975-13.363
				c-4.363-5.181-7.107-10.312-8.471-18.634C281.206,64.417,290.27,50.976,299.816,44.264z"/>
			<path fill="#FFFFFF" d="M109.34,217.991c14.626-13.856,32.161-24.429,55.148-29.175c1.534-0.316,3.369-0.188,4.706-0.752
				c1.543-0.652,4.108-4.602,5.082-5.646c17.673-18.982,34.038-38.667,51.196-57.972c-10.198-6.364-20.875-12.252-31.433-18.257
				c-12.37,10.319-23.871,21.479-36.326,32.374c-5.657,4.948-15.165,10.418-25.41,6.211c-8.557-3.513-15.057-12.045-14.304-23.527
				c0.628-9.595,8.002-14.739,14.116-20.328c12.522-11.449,25.411-23.192,38.396-34.445c4.452-3.856,8.609-8.4,15.435-9.976
				c0.802-0.185,2.08,0.116,2.635-0.941c0.288,0.916,2.936,0.206,4.894,0.377c5.782,0.504,10.736,4.083,15.434,6.776
				c23.315,13.362,47.015,27.078,70.582,40.467c4.573,2.599,9.272,5.373,13.929,8.282c4.675,2.924,9.979,4.966,14.116,8.093
				c8.295,6.271,12.083,20.271,7.34,31.057c-2.927,6.659-8.819,11.796-13.552,17.316c-10.896,12.71-22.68,25.843-33.879,38.773
				c23.522-0.947,50.075-2.709,72.841-4.517c3.396,0.49,7.313-0.235,11.48,0.564c11.157,2.143,19.149,11.679,17.882,25.598
				c-3.065,33.617-5.546,69.509-8.282,105.027c-0.75,9.749-1.192,16.809-6.211,22.587c-5.236,6.025-15.643,10.391-25.223,6.398
				c-7.929-3.306-14.661-10.556-14.494-21.271c0.081-5.146,0.973-10.817,1.318-16.375c1.528-24.483,4.284-51.933,5.835-75.664
				c-8.874,0.015-20.349,1.24-29.928,1.506c8.887,18.269,14.439,45.366,9.599,72.089c-4.276,23.607-15.493,43.489-29.549,57.405
				c-9.928-9.458-19.487-19.286-29.362-28.798c7.57-8.273,14.314-19.438,17.315-31.997c3.063-12.813,2.794-26.06-0.938-38.772
				c-10.455-30.813-34.412-52.357-73.408-53.076c-9.432-0.174-19.531,2.795-27.104,6.209c-8.044,3.631-14.584,7.91-20.892,13.177
				C128.502,237.35,119.23,227.361,109.34,217.991z"/>
			<path fill="#FFFFFF" d="M229.986,362.92c7.848,6.831,15.139,14.572,22.588,22.021c2.449,2.449,5.354,4.478,7.152,7.341
				c-19.904,15.379-47.353,26.005-80.748,23.902c-12.206-0.768-23.082-4.09-32.938-7.527c-3.02-1.055-5.926-2.636-8.658-3.951
				c-6.062-2.923-12.049-6.073-17.128-9.788c-5.209-3.813-9.731-8.247-14.305-12.611c-16.981-16.205-30.782-42.66-32.75-72.651
				c-0.955-14.558,1.035-31.218,5.458-44.23c4.511-13.271,10.954-24.095,18.446-34.444c7.558,6.623,14.521,14.111,21.834,21.271
				c2.5,2.447,5.179,4.847,7.34,7.528c0.987,0.968-0.851,2.699-1.505,3.766c-5.525,8.977-9.613,20.43-10.54,33.88
				c-1.083,15.705,3.326,30.263,9.787,41.029c6.092,10.155,14.549,19.319,25.221,25.976c10.588,6.604,24.173,11.313,38.962,11.293
				C205.474,375.699,218.852,370.066,229.986,362.92z"/>
		</g>
	</g>
	<g>
		<defs>
			<rect id="SVGID_7_" y="0.5" width="451" height="450.5"/>
		</defs>
		<clipPath id="SVGID_8_">
			<use xlink:href="#SVGID_7_"  overflow="visible"/>
		</clipPath>
		<path clip-path="url(#SVGID_8_)" fill="#FFFF33" d="M77-67.72c-93.677,0-169.6,75.922-169.6,169.6
			c0,93.677,75.923,169.601,169.6,169.601c93.676,0,169.6-75.924,169.6-169.601C246.6,8.202,170.676-67.72,77-67.72z M77,197.278
			c-11.925,0-21.2-9.273-21.2-21.2c0-11.927,8.678-21.2,21.2-21.2c11.33,0,21.2,9.275,21.2,21.2
			C98.2,188.003,88.33,197.278,77,197.278z M122.779,103.205l-29.878,18.55v1.325c0,8.613-7.289,15.901-15.901,15.901
			c-8.613,0-15.901-7.288-15.901-15.901v-10.6c0-5.301,2.649-10.6,7.951-13.912l37.763-22.525c4.637-2.649,7.288-7.289,7.288-12.587
			c0-7.951-7.221-14.575-15.171-14.575H65.075c-8.545,0-14.574,6.625-14.574,14.575c0,8.613-7.288,15.9-15.9,15.9
			c-8.613,0-15.901-7.287-15.901-15.9c0-25.837,20.538-46.375,45.779-46.375h33.854c27.031,0,47.566,20.538,47.566,46.375
			C145.901,79.355,137.288,94.593,122.779,103.205z"/>
	</g>
</g>
</svg>
