<svg width="423" height="308" viewBox="0 0 423 308" fill="none" xmlns="http://www.w3.org/2000/svg">
<path d="M423 271.523H0V271.725H423V271.523Z" fill="#D9D9D9"/>
<path d="M320.913 278.964H291.811V279.166H320.913V278.964Z" fill="#D9D9D9"/>
<path d="M355.151 278.391H338.772V278.593H355.151V278.391Z" fill="#D9D9D9"/>
<path d="M209.25 278.867H187.524V279.069H209.25V278.867Z" fill="#D9D9D9"/>
<path d="M224.943 281.732H210.104V281.934H224.943V281.732Z" fill="#D9D9D9"/>
<path d="M122.391 276.825H77.5614V277.027H122.391V276.825Z" fill="#D9D9D9"/>
<path d="M200.502 235.532H37.1479C35.8681 235.53 34.6416 235.044 33.7375 234.18C32.8334 233.316 32.3257 232.145 32.3257 230.924V11.8865C32.3368 10.6728 32.8495 9.51232 33.7524 8.65712C34.6553 7.80191 35.8754 7.32105 37.1479 7.31897H200.502C201.783 7.31897 203.012 7.80444 203.918 8.66858C204.824 9.53271 205.333 10.7047 205.333 11.9268V230.924C205.333 232.147 204.824 233.319 203.918 234.183C203.012 235.047 201.783 235.532 200.502 235.532ZM37.1479 7.48037C35.9242 7.4825 34.7515 7.94766 33.8871 8.77373C33.0227 9.5998 32.5372 10.7193 32.5372 11.8865V230.924C32.5372 232.092 33.0227 233.211 33.8871 234.037C34.7515 234.863 35.9242 235.328 37.1479 235.331H200.502C201.726 235.328 202.9 234.864 203.766 234.038C204.632 233.212 205.119 232.092 205.121 230.924V11.8865C205.119 10.7185 204.632 9.59908 203.766 8.77324C202.9 7.9474 201.726 7.4825 200.502 7.48037H37.1479Z" fill="#D9D9D9"/>
<path d="M383.5 235.532H220.138C218.857 235.53 217.63 235.044 216.724 234.18C215.819 233.317 215.309 232.146 215.307 230.924V11.8865C215.32 10.6721 215.835 9.51159 216.739 8.65661C217.643 7.80163 218.865 7.32103 220.138 7.31897H383.5C384.771 7.32317 385.989 7.80497 386.89 8.65995C387.791 9.51492 388.303 10.6742 388.314 11.8865V230.924C388.314 232.144 387.807 233.313 386.905 234.177C386.003 235.041 384.779 235.528 383.5 235.532ZM220.138 7.48037C218.913 7.4825 217.74 7.9474 216.874 8.77324C216.008 9.59908 215.521 10.7185 215.519 11.8865V230.924C215.521 232.092 216.008 233.212 216.874 234.038C217.74 234.864 218.913 235.328 220.138 235.331H383.5C384.725 235.328 385.898 234.864 386.764 234.038C387.63 233.212 388.117 232.092 388.119 230.924V11.8865C388.117 10.7185 387.63 9.59908 386.764 8.77324C385.898 7.9474 384.725 7.4825 383.5 7.48037H220.138Z" fill="#D9D9D9"/>
<path d="M367.189 26.9043H239.697V131.456H367.189V26.9043Z" fill="#D9D9D9"/>
<path d="M370.023 26.9043H242.531V131.456H370.023V26.9043Z" fill="#FAF9FF"/>
<path d="M364.939 126.55V31.8107L247.616 31.8107V126.55H364.939Z" fill="#FAF9FF"/>
<path d="M327.444 126.55V31.8107H319.78V126.55H327.444Z" fill="#D9D9D9"/>
<path d="M287.124 126.55V31.8107H279.459V126.55H287.124Z" fill="#D9D9D9"/>
<path d="M330.143 129.657V28.1552H322.478V129.657H330.143Z" fill="#FAF9FF"/>
<path d="M289.814 129.665V28.1632H282.149V129.665H289.814Z" fill="#FAF9FF"/>
<path d="M364.939 126.542V31.8027H362.799V126.542H364.939Z" fill="#D9D9D9"/>
<path d="M150.03 109.474C150.03 109.474 134.514 83.9819 156.045 63.6541C156.045 63.6541 161.662 67.1483 161.578 71.8449C161.493 76.5415 155.554 77.7278 156.831 81.6497C158.109 85.5716 163.701 89.4048 160.029 92.6488C156.358 95.8929 160.622 98.7657 160.376 102.736C160.131 106.706 150.03 109.474 150.03 109.474Z" fill="#D9D9D9"/>
<path d="M152.466 113.646C152.466 113.646 158.76 84.7727 131.621 71.974C131.621 71.974 127.442 76.9773 129.083 81.4076C130.724 85.8379 136.739 85.1762 136.824 89.2837C136.908 93.3912 132.873 98.7172 137.424 100.686C141.976 102.655 138.888 106.674 140.436 110.37C141.984 114.066 152.466 113.646 152.466 113.646Z" fill="#FAF9FF"/>
<path d="M138.651 106.311C138.651 106.311 138.922 131.238 149.37 131.238C159.818 131.238 160.08 106.311 160.08 106.311H138.651Z" fill="#FAF9FF"/>
<path d="M75.8778 121.861C75.8778 121.861 76.4616 131.238 98.7706 131.238C121.08 131.238 121.672 121.861 121.672 121.861H75.8778Z" fill="#FAF9FF"/>
<path d="M311.074 178.398H299.298C297.831 178.398 296.642 179.533 296.642 180.932V199.509C296.642 200.908 297.831 202.043 299.298 202.043H311.074C312.541 202.043 313.731 200.908 313.731 199.509V180.932C313.731 179.533 312.541 178.398 311.074 178.398Z" fill="#FAF9FF"/>
<path d="M342.308 186.129H334.381C333.396 186.129 332.596 186.891 332.596 187.832V200.34C332.596 201.28 333.396 202.043 334.381 202.043H342.308C343.294 202.043 344.094 201.28 344.094 200.34V187.832C344.094 186.891 343.294 186.129 342.308 186.129Z" fill="#FAF9FF"/>
<path d="M343.493 184.588H333.197C332.865 184.588 332.596 184.844 332.596 185.161V185.806C332.596 186.123 332.865 186.379 333.197 186.379H343.493C343.825 186.379 344.094 186.123 344.094 185.806V185.161C344.094 184.844 343.825 184.588 343.493 184.588Z" fill="#FAF9FF"/>
<path d="M269.383 188.889C269.383 188.889 269.806 202.043 285.957 202.043C302.107 202.043 302.538 188.889 302.538 188.889H269.383Z" fill="#FAF9FF"/>
<path d="M229.215 171.515H253.656V166.915H229.215V171.515Z" fill="#D9D9D9"/>
<path d="M375.167 166.923H253.656V171.523H375.167V166.923Z" fill="#FAF9FF"/>
<path d="M229.215 206.643H253.656V202.043H229.215V206.643Z" fill="#D9D9D9"/>
<path d="M375.167 202.043H253.656V206.643H375.167V202.043Z" fill="#FAF9FF"/>
<path d="M238.022 171.515H233.513V271.515H238.022V171.515Z" fill="#D9D9D9"/>
<path d="M258.165 171.515H253.656V271.515H258.165V171.515Z" fill="#FAF9FF"/>
<path d="M359.533 171.515H355.024V271.515H359.533V171.515Z" fill="#D9D9D9"/>
<path d="M375.167 171.515H370.658V271.515H375.167V171.515Z" fill="#FAF9FF"/>
<path d="M75.8778 137.089H52.7651V265.471H75.8778V137.089Z" fill="#FAF9FF"/>
<path d="M171.18 265.463H57.2066V271.524H171.18V265.463Z" fill="#FAF9FF"/>
<path d="M75.8777 265.463H175.613L175.613 137.081H75.8777L75.8777 265.463Z" fill="#FAF9FF"/>
<path d="M84.9639 216.956H166.527V185.597H84.9639V216.956Z" fill="#FAF9FF"/>
<path d="M84.9639 254.028H166.527V222.669H84.9639V254.028Z" fill="#FAF9FF"/>
<path d="M134.903 189.034H116.587C115.991 189.032 115.42 188.805 114.998 188.403C114.577 188.001 114.339 187.456 114.337 186.888C114.337 186.318 114.574 185.771 114.995 185.367C115.417 184.963 115.99 184.735 116.587 184.733H134.903C135.501 184.735 136.073 184.963 136.495 185.367C136.917 185.771 137.153 186.318 137.153 186.888C137.151 187.456 136.913 188.001 136.492 188.403C136.07 188.805 135.499 189.032 134.903 189.034Z" fill="#FAF9FF"/>
<path d="M84.9639 179.875H166.527V148.516H84.9639V179.875Z" fill="#FAF9FF"/>
<path d="M134.903 151.962H116.587C115.99 151.96 115.417 151.732 114.995 151.328C114.574 150.924 114.337 150.377 114.337 149.807C114.339 149.238 114.577 148.694 114.998 148.292C115.42 147.889 115.991 147.663 116.587 147.66H134.903C135.499 147.663 136.07 147.889 136.492 148.292C136.913 148.694 137.151 149.238 137.153 149.807C137.153 150.377 136.917 150.924 136.495 151.328C136.073 151.732 135.501 151.96 134.903 151.962Z" fill="#FAF9FF"/>
<path d="M134.903 226.107H116.587C115.991 226.105 115.42 225.878 114.998 225.476C114.577 225.074 114.339 224.529 114.337 223.96C114.337 223.39 114.574 222.843 114.995 222.44C115.417 222.036 115.99 221.808 116.587 221.806H134.903C135.501 221.808 136.073 222.036 136.495 222.44C136.917 222.843 137.153 223.39 137.153 223.96C137.151 224.529 136.913 225.074 136.492 225.476C136.07 225.878 135.499 226.105 134.903 226.107Z" fill="#FAF9FF"/>
<path d="M178.692 131.238H75.8778V137.089H178.692V131.238Z" fill="#FAF9FF"/>
<path d="M49.5332 137.081H75.8777V131.23H49.5332V137.081Z" fill="#D9D9D9"/>
<path d="M101.638 31.8107H64.2453V70.9814H101.638V31.8107Z" fill="#FAF9FF"/>
<path d="M105.691 31.8107H67.0624V70.9814H105.691V31.8107Z" fill="#FAF9FF"/>
<path d="M102.451 67.8908V34.8934H70.2942V67.8908H102.451Z" fill="#FAF9FF"/>
<path d="M94.6589 59.8936V42.8906H78.0942V59.8936H94.6589Z" fill="#FAF9FF"/>
<path d="M141.062 20.2468H112.704V49.306H141.062V20.2468Z" fill="#FAF9FF"/>
<path d="M144.074 20.2468H115.42V49.306H144.074V20.2468Z" fill="#FAF9FF"/>
<path d="M141.671 47.0142V22.5386H117.822V47.0142H141.671Z" fill="#FAF9FF"/>
<path d="M129.743 28.5828L123.22 39.3641H136.265L129.743 28.5828Z" fill="#FAF9FF"/>
<path d="M211.5 307.967C302.092 307.967 375.531 303.877 375.531 298.832C375.531 293.787 302.092 289.697 211.5 289.697C120.908 289.697 47.469 293.787 47.469 298.832C47.469 303.877 120.908 307.967 211.5 307.967Z" fill="#FAF9FF"/>
<path d="M355.151 80.6087H272.158C267.78 80.6087 264.231 83.994 264.231 88.1701V109.7C264.231 113.876 267.78 117.262 272.158 117.262H355.151C359.529 117.262 363.078 113.876 363.078 109.7V88.1701C363.078 83.994 359.529 80.6087 355.151 80.6087Z" fill="#6D57E4"/>
<path d="M338.688 86.7902H273.859C273.092 86.7902 272.471 87.3827 272.471 88.1136V89.5662C272.471 90.2971 273.092 90.8896 273.859 90.8896H338.688C339.454 90.8896 340.075 90.2971 340.075 89.5662V88.1136C340.075 87.3827 339.454 86.7902 338.688 86.7902Z" fill="#6D57E4"/>
<path d="M318.155 96.6676H273.859C273.092 96.6676 272.471 97.2601 272.471 97.991V99.4436C272.471 100.174 273.092 100.767 273.859 100.767H318.155C318.921 100.767 319.543 100.174 319.543 99.4436V97.991C319.543 97.2601 318.921 96.6676 318.155 96.6676Z" fill="#6D57E4"/>
<path d="M306.277 106.545H273.859C273.092 106.545 272.471 107.138 272.471 107.868V109.321C272.471 110.052 273.092 110.644 273.859 110.644H306.277C307.044 110.644 307.665 110.052 307.665 109.321V107.868C307.665 107.138 307.044 106.545 306.277 106.545Z" fill="#6D57E4"/>
<path d="M346.454 106.545H314.035C313.269 106.545 312.648 107.138 312.648 107.868V109.321C312.648 110.052 313.269 110.644 314.035 110.644H346.454C347.22 110.644 347.841 110.052 347.841 109.321V107.868C347.841 107.138 347.22 106.545 346.454 106.545Z" fill="#6D57E4"/>
<g opacity="0.5">
<path opacity="0.5" d="M338.688 86.7902H273.859C273.092 86.7902 272.471 87.3827 272.471 88.1136V89.5662C272.471 90.2971 273.092 90.8896 273.859 90.8896H338.688C339.454 90.8896 340.075 90.2971 340.075 89.5662V88.1136C340.075 87.3827 339.454 86.7902 338.688 86.7902Z" fill="white"/>
<path opacity="0.5" d="M318.155 96.6676H273.859C273.092 96.6676 272.471 97.2601 272.471 97.991V99.4436C272.471 100.174 273.092 100.767 273.859 100.767H318.155C318.921 100.767 319.543 100.174 319.543 99.4436V97.991C319.543 97.2601 318.921 96.6676 318.155 96.6676Z" fill="white"/>
<path opacity="0.5" d="M306.277 106.545H273.859C273.092 106.545 272.471 107.138 272.471 107.868V109.321C272.471 110.052 273.092 110.644 273.859 110.644H306.277C307.044 110.644 307.665 110.052 307.665 109.321V107.868C307.665 107.138 307.044 106.545 306.277 106.545Z" fill="white"/>
<path opacity="0.5" d="M346.454 106.545H314.035C313.269 106.545 312.648 107.138 312.648 107.868V109.321C312.648 110.052 313.269 110.644 314.035 110.644H346.454C347.22 110.644 347.841 110.052 347.841 109.321V107.868C347.841 107.138 347.22 106.545 346.454 106.545Z" fill="white"/>
</g>
<path d="M288.672 72.0628H194.47C188.05 72.0628 182.846 77.027 182.846 83.1507V114.72C182.846 120.843 188.05 125.808 194.47 125.808H288.672C295.092 125.808 300.296 120.843 300.296 114.72V83.1507C300.296 77.027 295.092 72.0628 288.672 72.0628Z" fill="#6D57E4"/>
<path d="M292.005 81.1252H196.966C195.84 81.1252 194.927 81.9959 194.927 83.07V85.1923C194.927 86.2664 195.84 87.1372 196.966 87.1372H292.005C293.131 87.1372 294.044 86.2664 294.044 85.1923V83.07C294.044 81.9959 293.131 81.1252 292.005 81.1252Z" fill="#6D57E4"/>
<path d="M261.896 95.6104H196.966C195.84 95.6104 194.927 96.4812 194.927 97.5553V99.6776C194.927 100.752 195.84 101.622 196.966 101.622H261.896C263.022 101.622 263.935 100.752 263.935 99.6776V97.5553C263.935 96.4812 263.022 95.6104 261.896 95.6104Z" fill="#6D57E4"/>
<path d="M244.486 110.096H196.966C195.84 110.096 194.927 110.966 194.927 112.04V114.163C194.927 115.237 195.84 116.108 196.966 116.108H244.486C245.612 116.108 246.524 115.237 246.524 114.163V112.04C246.524 110.966 245.612 110.096 244.486 110.096Z" fill="#6D57E4"/>
<path d="M295.465 110.096H255.873C254.747 110.096 253.834 110.966 253.834 112.04V114.163C253.834 115.237 254.747 116.108 255.873 116.108H295.465C296.592 116.108 297.504 115.237 297.504 114.163V112.04C297.504 110.966 296.592 110.096 295.465 110.096Z" fill="#6D57E4"/>
<g opacity="0.5">
<path opacity="0.5" d="M292.005 81.1252H196.966C195.84 81.1252 194.927 81.9959 194.927 83.07V85.1923C194.927 86.2664 195.84 87.1372 196.966 87.1372H292.005C293.131 87.1372 294.044 86.2664 294.044 85.1923V83.07C294.044 81.9959 293.131 81.1252 292.005 81.1252Z" fill="white"/>
<path opacity="0.5" d="M261.896 95.6104H196.966C195.84 95.6104 194.927 96.4811 194.927 97.5552V99.6776C194.927 100.752 195.84 101.622 196.966 101.622H261.896C263.022 101.622 263.935 100.752 263.935 99.6776V97.5552C263.935 96.4811 263.022 95.6104 261.896 95.6104Z" fill="white"/>
<path opacity="0.5" d="M244.485 110.096H196.966C195.84 110.096 194.927 110.966 194.927 112.04V114.163C194.927 115.237 195.84 116.108 196.966 116.108H244.485C245.611 116.108 246.524 115.237 246.524 114.163V112.04C246.524 110.966 245.611 110.096 244.485 110.096Z" fill="white"/>
<path opacity="0.5" d="M295.465 110.096H255.873C254.747 110.096 253.834 110.966 253.834 112.04V114.163C253.834 115.237 254.747 116.108 255.873 116.108H295.465C296.591 116.108 297.504 115.237 297.504 114.163V112.04C297.504 110.966 296.591 110.096 295.465 110.096Z" fill="white"/>
</g>
<path d="M230.104 135.548H184.733C181.733 135.548 179.301 137.867 179.301 140.729V205.561C179.301 208.422 181.733 210.742 184.733 210.742H230.104C233.103 210.742 235.535 208.422 235.535 205.561V140.729C235.535 137.867 233.103 135.548 230.104 135.548Z" fill="#6D57E4"/>
<path opacity="0.4" d="M230.104 135.548H184.733C181.733 135.548 179.301 137.867 179.301 140.729V205.561C179.301 208.422 181.733 210.742 184.733 210.742H230.104C233.103 210.742 235.535 208.422 235.535 205.561V140.729C235.535 137.867 233.103 135.548 230.104 135.548Z" fill="black"/>
<path d="M228.022 143.392H186.805C186.254 143.392 185.807 143.818 185.807 144.344V145.772C185.807 146.298 186.254 146.724 186.805 146.724H228.022C228.574 146.724 229.021 146.298 229.021 145.772V144.344C229.021 143.818 228.574 143.392 228.022 143.392Z" fill="#FAF9FF"/>
<path d="M214.901 151.413H186.805C186.254 151.413 185.807 151.839 185.807 152.365V153.794C185.807 154.319 186.254 154.746 186.805 154.746H214.901C215.452 154.746 215.899 154.319 215.899 153.794V152.365C215.899 151.839 215.452 151.413 214.901 151.413Z" fill="#FAF9FF"/>
<path d="M228.022 159.442H186.805C186.254 159.442 185.807 159.869 185.807 160.395V161.823C185.807 162.349 186.254 162.775 186.805 162.775H228.022C228.574 162.775 229.021 162.349 229.021 161.823V160.395C229.021 159.869 228.574 159.442 228.022 159.442Z" fill="#FAF9FF"/>
<path d="M202.126 167.464H186.805C186.254 167.464 185.807 167.89 185.807 168.416V169.844C185.807 170.37 186.254 170.797 186.805 170.797H202.126C202.678 170.797 203.125 170.37 203.125 169.844V168.416C203.125 167.89 202.678 167.464 202.126 167.464Z" fill="#FAF9FF"/>
<path d="M223.564 167.464H208.243C207.692 167.464 207.245 167.89 207.245 168.416V169.844C207.245 170.37 207.692 170.797 208.243 170.797H223.564C224.115 170.797 224.562 170.37 224.562 169.844V168.416C224.562 167.89 224.115 167.464 223.564 167.464Z" fill="#FAF9FF"/>
<path d="M228.022 175.493H186.805C186.254 175.493 185.807 175.919 185.807 176.445V177.874C185.807 178.4 186.254 178.826 186.805 178.826H228.022C228.574 178.826 229.021 178.4 229.021 177.874V176.445C229.021 175.919 228.574 175.493 228.022 175.493Z" fill="#FAF9FF"/>
<path d="M228.022 183.515H186.805C186.254 183.515 185.807 183.941 185.807 184.467V185.895C185.807 186.421 186.254 186.847 186.805 186.847H228.022C228.574 186.847 229.021 186.421 229.021 185.895V184.467C229.021 183.941 228.574 183.515 228.022 183.515Z" fill="#FAF9FF"/>
<path d="M220.713 191.544H186.805C186.254 191.544 185.807 191.97 185.807 192.496V193.925C185.807 194.45 186.254 194.877 186.805 194.877H220.713C221.264 194.877 221.711 194.45 221.711 193.925V192.496C221.711 191.97 221.264 191.544 220.713 191.544Z" fill="#FAF9FF"/>
<path d="M202.626 199.565H186.805C186.254 199.565 185.807 199.992 185.807 200.518V201.946C185.807 202.472 186.254 202.898 186.805 202.898H202.626C203.177 202.898 203.624 202.472 203.624 201.946V200.518C203.624 199.992 203.177 199.565 202.626 199.565Z" fill="#FAF9FF"/>
<path d="M242.379 135.088H179.445L207.27 156.206L249.934 171.539V142.278C249.929 140.37 249.131 138.541 247.715 137.193C246.299 135.845 244.38 135.088 242.379 135.088Z" fill="#6D57E4"/>
<path opacity="0.4" d="M242.379 135.088H179.445L207.27 156.206L249.934 171.539V142.278C249.929 140.37 249.131 138.541 247.715 137.193C246.299 135.845 244.38 135.088 242.379 135.088Z" fill="black"/>
<path d="M239.63 145.966H193.582C192.89 145.966 192.33 146.501 192.33 147.16V149.387C192.33 150.047 192.89 150.582 193.582 150.582H239.63C240.321 150.582 240.882 150.047 240.882 149.387V147.16C240.882 146.501 240.321 145.966 239.63 145.966Z" fill="#FAF9FF"/>
<path d="M351.217 192.254V150.033C351.217 146.797 348.467 144.174 345.075 144.174H268.216C264.824 144.174 262.074 146.797 262.074 150.033V192.254C262.074 195.49 264.824 198.113 268.216 198.113H345.075C348.467 198.113 351.217 195.49 351.217 192.254Z" fill="#6D57E4"/>
<path d="M365.252 178.874V136.653C365.252 133.418 362.502 130.795 359.11 130.795H282.251C278.859 130.795 276.109 133.418 276.109 136.653V178.874C276.109 182.11 278.859 184.733 282.251 184.733H359.11C362.502 184.733 365.252 182.11 365.252 178.874Z" fill="#6D57E4"/>
<path opacity="0.5" d="M365.252 178.874V136.653C365.252 133.418 362.502 130.795 359.11 130.795H282.251C278.859 130.795 276.109 133.418 276.109 136.653V178.874C276.109 182.11 278.859 184.733 282.251 184.733H359.11C362.502 184.733 365.252 182.11 365.252 178.874Z" fill="white"/>
<path d="M357.452 164.405V138.413C357.452 136.973 356.229 135.806 354.719 135.806H329.602C328.092 135.806 326.869 136.973 326.869 138.413V164.405C326.869 165.845 328.092 167.012 329.602 167.012H354.719C356.229 167.012 357.452 165.845 357.452 164.405Z" fill="#6D57E4"/>
<path opacity="0.7" d="M357.452 164.405V138.413C357.452 136.973 356.229 135.806 354.719 135.806H329.602C328.092 135.806 326.869 136.973 326.869 138.413V164.405C326.869 165.845 328.092 167.012 329.602 167.012H354.719C356.229 167.012 357.452 165.845 357.452 164.405Z" fill="white"/>
<path d="M322.081 176.978V157.062C322.081 155.956 321.141 155.06 319.983 155.06H300.736C299.577 155.06 298.638 155.956 298.638 157.062V176.978C298.638 178.083 299.577 178.979 300.736 178.979H319.983C321.141 178.979 322.081 178.083 322.081 176.978Z" fill="#6D57E4"/>
<path opacity="0.3" d="M322.081 176.978V157.062C322.081 155.956 321.141 155.06 319.983 155.06H300.736C299.577 155.06 298.638 155.956 298.638 157.062V176.978C298.638 178.083 299.577 178.979 300.736 178.979H319.983C321.141 178.979 322.081 178.083 322.081 176.978Z" fill="white"/>
<path d="M310.355 50.7021V39.9451C310.355 36.656 307.56 33.9896 304.112 33.9896L97.5777 33.9896C94.1295 33.9896 91.3342 36.656 91.3342 39.9451V50.7021C91.3342 53.9913 94.1295 56.6576 97.5777 56.6576L304.112 56.6576C307.56 56.6576 310.355 53.9913 310.355 50.7021Z" fill="#6D57E4"/>
<path opacity="0.5" d="M310.355 50.7021V39.9451C310.355 36.656 307.56 33.9896 304.112 33.9896L97.5777 33.9896C94.1295 33.9896 91.3342 36.656 91.3342 39.9451V50.7021C91.3342 53.9913 94.1295 56.6576 97.5777 56.6576L304.112 56.6576C307.56 56.6576 310.355 53.9913 310.355 50.7021Z" fill="white"/>
<path d="M271.278 60.4504V52.6469H211.847V60.4504H271.278Z" fill="#6D57E4"/>
<path opacity="0.5" d="M271.278 60.4504V52.6469H211.847V60.4504H271.278Z" fill="white"/>
<path d="M331.666 17.2125V6.4555C331.666 3.16637 328.871 0.5 325.422 0.5L118.888 0.5C115.44 0.5 112.645 3.16637 112.645 6.4555V17.2125C112.645 20.5016 115.44 23.168 118.888 23.168L325.422 23.168C328.871 23.168 331.666 20.5016 331.666 17.2125Z" fill="#6D57E4"/>
<path d="M110.285 119.699C109.54 121.313 108.72 123.056 108 124.758C107.281 126.461 106.537 128.212 105.885 129.955C104.549 133.353 103.477 136.841 102.679 140.39L102.434 141.681L102.349 142.165C102.349 142.302 102.349 142.48 102.298 142.641C102.266 143.427 102.283 144.214 102.349 144.997C102.51 146.7 102.798 148.524 103.195 150.348C103.906 154.003 104.811 157.772 105.733 161.484L101.393 163.098C99.3701 159.58 97.6471 155.913 96.241 152.131C95.5002 150.163 94.901 148.149 94.4475 146.103C94.1934 144.971 94.035 143.821 93.9738 142.665C93.9738 142.342 93.9738 142.036 93.9738 141.689C93.9738 141.342 93.9738 140.954 94.033 140.729L94.2022 139.115C94.455 137.036 94.842 134.974 95.3612 132.941C95.835 130.924 96.4441 128.963 97.0532 127.026C97.6623 125.089 98.4237 123.185 99.2274 121.313C99.625 120.377 100.073 119.449 100.463 118.52C100.852 117.592 101.309 116.705 101.85 115.712L110.285 119.699Z" fill="#E4897B"/>
<path d="M105.505 160.395L108.804 163.469L101.605 166.697C101.605 166.697 99.8618 163.784 101.072 161.153L105.505 160.395Z" fill="#E4897B"/>
<path d="M111.469 168.045L105.386 170.417L101.613 166.665L108.804 163.469L111.469 168.045Z" fill="#E4897B"/>
<path opacity="0.4" d="M234.689 164.736C222.719 163.454 211.416 158.816 202.209 151.407C193.002 143.998 186.305 134.152 182.964 123.113C179.622 112.075 179.787 100.339 183.437 89.3892C187.088 78.4397 194.059 68.7684 203.471 61.5978C212.883 54.4273 224.312 50.0794 236.314 49.1039C248.316 48.1284 260.351 50.5691 270.899 56.1174C281.447 61.6657 290.033 70.0724 295.573 80.2749C301.113 90.4775 303.357 102.018 302.022 113.437C301.135 121.023 298.689 128.369 294.825 135.054C290.96 141.738 285.753 147.631 279.499 152.395C273.246 157.159 266.07 160.701 258.381 162.819C250.693 164.936 242.642 165.588 234.689 164.736Z" fill="#FAF9FF"/>
<path opacity="0.4" d="M279.002 61.217L186.365 131.82C185.976 131.013 185.596 130.206 185.24 129.399C182.918 124.129 181.432 118.559 180.833 112.872L260.847 51.8884C267.416 53.9786 273.558 57.1344 279.002 61.217Z" fill="#FAF9FF"/>
<path opacity="0.4" d="M300.381 92.1485L213.285 158.522C205.011 154.408 197.841 148.532 192.33 141.35L287.428 68.8672C293.558 75.5788 297.99 83.5441 300.381 92.1485Z" fill="#FAF9FF"/>
<path d="M172.914 84.7889L172.11 84.5306C173.502 80.6127 175.252 76.8189 177.339 73.1926L178.075 73.5799C176.015 77.1656 174.289 80.9162 172.914 84.7889ZM183.184 65.954L182.499 65.4779C189.452 56.5106 198.551 49.2588 209.038 44.327L209.419 45.0533C199.051 49.9341 190.056 57.1085 183.184 65.9782V65.954ZM275.898 46.1588C273.133 44.7444 270.273 43.507 267.336 42.4548L267.641 41.6962C270.606 42.7731 273.495 44.0347 276.287 45.4729L275.898 46.1588Z" fill="#6D57E4"/>
<path opacity="0.3" d="M172.914 84.7889L172.11 84.5306C173.502 80.6127 175.252 76.8189 177.339 73.1926L178.075 73.5799C176.015 77.1656 174.289 80.9162 172.914 84.7889ZM183.184 65.954L182.499 65.4779C189.452 56.5106 198.551 49.2588 209.038 44.327L209.419 45.0533C199.051 49.9341 190.056 57.1085 183.184 65.9782V65.954ZM275.898 46.1588C273.133 44.7444 270.273 43.507 267.336 42.4548L267.641 41.6962C270.606 42.7731 273.495 44.0347 276.287 45.4729L275.898 46.1588Z" fill="black"/>
<path d="M304.45 77.3162C296.616 61.8185 282.831 49.7905 265.952 43.7258C249.072 37.6612 230.393 38.0249 213.788 44.7417C197.182 51.4585 183.923 64.0131 176.758 79.8029C169.594 95.5927 169.075 113.407 175.308 129.552C169.657 131.44 164.073 133.466 158.524 135.556C150.52 138.585 142.591 141.748 134.734 145.046C126.883 148.363 119.066 151.744 111.325 155.278C107.442 157.013 103.61 158.845 99.7435 160.621C97.7322 161.445 95.9099 162.638 94.3798 164.131C93.5518 164.958 92.8226 165.87 92.2056 166.85C91.4528 168.01 90.8827 169.269 90.5136 170.587C89.877 172.961 90.1523 175.475 91.2897 177.673C92.4271 179.871 94.3514 181.608 96.7148 182.57C98.0272 183.095 99.4118 183.438 100.826 183.587C102.021 183.716 103.227 183.716 104.422 183.587C106.593 183.336 108.691 182.68 110.598 181.658C114.43 179.81 118.288 178.027 122.095 176.131C129.709 172.427 137.323 168.561 144.844 164.639C152.365 160.717 159.894 156.61 167.237 152.397C172.313 149.468 177.44 146.474 182.465 143.343C192.115 157.874 207.256 168.307 224.75 172.48C242.244 176.652 260.75 174.245 276.434 165.757C292.119 157.269 303.778 143.35 308.997 126.885C314.216 110.42 312.594 92.6714 304.467 77.3162H304.45ZM265.991 154.407C256.159 159.036 245.109 160.78 234.239 159.419C223.368 158.058 213.164 153.653 204.918 146.761C196.671 139.868 190.753 130.798 187.91 120.697C185.068 110.597 185.429 99.9187 188.948 90.0137C192.467 80.1087 198.987 71.4215 207.682 65.0506C216.377 58.6796 226.857 54.9111 237.797 54.2214C248.737 53.5318 259.646 55.9519 269.145 61.176C278.643 66.4 286.304 74.1932 291.159 83.5703C294.384 89.7977 296.291 96.57 296.771 103.5C297.251 110.431 296.295 117.384 293.958 123.962C291.621 130.539 287.948 136.614 283.149 141.838C278.351 147.062 272.52 151.333 265.991 154.407Z" fill="#6D57E4"/>
<path opacity="0.3" d="M304.45 77.3162C296.616 61.8185 282.831 49.7905 265.952 43.7258C249.072 37.6612 230.393 38.0249 213.788 44.7417C197.182 51.4585 183.923 64.0131 176.758 79.8029C169.594 95.5927 169.075 113.407 175.308 129.552C169.657 131.44 164.073 133.466 158.524 135.556C150.52 138.585 142.591 141.748 134.734 145.046C126.883 148.363 119.066 151.744 111.325 155.278C107.442 157.013 103.61 158.845 99.7435 160.621C97.7322 161.445 95.9099 162.638 94.3798 164.131C93.5518 164.958 92.8226 165.87 92.2056 166.85C91.4528 168.01 90.8827 169.269 90.5136 170.587C89.877 172.961 90.1523 175.475 91.2897 177.673C92.4271 179.871 94.3514 181.608 96.7148 182.57C98.0272 183.095 99.4118 183.438 100.826 183.587C102.021 183.716 103.227 183.716 104.422 183.587C106.593 183.336 108.691 182.68 110.598 181.658C114.43 179.81 118.288 178.027 122.095 176.131C129.709 172.427 137.323 168.561 144.844 164.639C152.365 160.717 159.894 156.61 167.237 152.397C172.313 149.468 177.44 146.474 182.465 143.343C192.115 157.874 207.256 168.307 224.75 172.48C242.244 176.652 260.75 174.245 276.434 165.757C292.119 157.269 303.778 143.35 308.997 126.885C314.216 110.42 312.594 92.6714 304.467 77.3162H304.45ZM265.991 154.407C256.159 159.036 245.109 160.78 234.239 159.419C223.368 158.058 213.164 153.653 204.918 146.761C196.671 139.868 190.753 130.798 187.91 120.697C185.068 110.597 185.429 99.9187 188.948 90.0137C192.467 80.1087 198.987 71.4215 207.682 65.0506C216.377 58.6796 226.857 54.9111 237.797 54.2214C248.737 53.5318 259.646 55.9519 269.145 61.176C278.643 66.4 286.304 74.1932 291.159 83.5703C294.384 89.7977 296.291 96.57 296.771 103.5C297.251 110.431 296.295 117.384 293.958 123.962C291.621 130.539 287.948 136.614 283.149 141.838C278.351 147.062 272.52 151.333 265.991 154.407Z" fill="black"/>
<path d="M133.668 90.8815C133.668 91.3576 133.93 91.745 134.26 91.745C134.59 91.745 134.852 91.3576 134.852 90.8815C134.852 90.4054 134.59 90.018 134.26 90.018C133.93 90.018 133.668 90.4377 133.668 90.8815Z" fill="black"/>
<path d="M133.905 91.745C134.504 93.2065 135.309 94.583 136.299 95.8363C135.957 96.0699 135.565 96.2292 135.152 96.303C134.738 96.3769 134.313 96.3636 133.905 96.264V91.745Z" fill="#DE5753"/>
<path d="M131.917 88.2265C131.87 88.2266 131.823 88.2164 131.781 88.1968C131.738 88.1773 131.701 88.1488 131.671 88.1136C131.627 88.052 131.61 87.9766 131.622 87.9029C131.635 87.8293 131.677 87.7632 131.739 87.7181C132.112 87.4486 132.547 87.269 133.008 87.1945C133.469 87.12 133.942 87.1529 134.387 87.2904C134.427 87.3008 134.464 87.3191 134.496 87.344C134.528 87.369 134.555 87.4001 134.573 87.4353C134.592 87.4706 134.603 87.5092 134.605 87.5486C134.607 87.588 134.6 87.6275 134.586 87.6643C134.571 87.7012 134.548 87.7347 134.519 87.7626C134.489 87.7906 134.454 87.8123 134.416 87.8265C134.377 87.8407 134.336 87.847 134.294 87.845C134.253 87.843 134.213 87.8328 134.176 87.815C133.822 87.7116 133.448 87.6906 133.084 87.7538C132.721 87.817 132.378 87.9625 132.086 88.1781C132.036 88.2098 131.977 88.2267 131.917 88.2265Z" fill="black"/>
<path d="M116.579 94.4726C117.425 98.806 118.355 106.755 115.174 109.652C115.174 109.652 116.418 114.05 124.87 114.05C134.176 114.05 129.303 109.652 129.303 109.652C124.227 108.49 124.37 104.907 125.25 101.534L116.579 94.4726Z" fill="#E4897B"/>
<path d="M111.376 111.936C112.383 110.443 110.691 106.819 110.691 106.819C110.691 106.819 125.648 103.228 131.764 108.74C133.033 109.878 131.629 111.556 131.629 111.556L111.376 111.936Z" fill="#6D57E4"/>
<path opacity="0.1" d="M111.376 111.936C112.383 110.443 110.691 106.819 110.691 106.819C110.691 106.819 125.648 103.228 131.764 108.74C133.033 109.878 131.629 111.556 131.629 111.556L111.376 111.936Z" fill="black"/>
<path d="M86.6304 276.583C85.8436 276.583 84.583 275.332 84.2108 274.864C84.1948 274.842 84.1862 274.815 84.1862 274.788C84.1862 274.76 84.1948 274.734 84.2108 274.711C84.2244 274.689 84.2442 274.67 84.268 274.657C84.2919 274.644 84.3188 274.638 84.3462 274.638C84.4392 274.638 86.5119 274.816 87.0787 275.518C87.1404 275.592 87.1844 275.678 87.2078 275.77C87.2311 275.862 87.2333 275.958 87.2141 276.051C87.2067 276.171 87.1605 276.286 87.0817 276.38C87.0029 276.474 86.8954 276.542 86.7742 276.575L86.6304 276.583ZM84.6676 274.969C85.2852 275.647 86.275 276.414 86.698 276.317C86.698 276.317 86.8672 276.277 86.918 276.018C86.9291 275.965 86.9273 275.909 86.9126 275.856C86.898 275.803 86.8709 275.753 86.8334 275.712C86.2067 275.259 85.4526 274.995 84.6676 274.953V274.969Z" fill="#6D57E4"/>
<path d="M84.7608 274.953C84.6089 274.968 84.4558 274.968 84.3039 274.953C84.2772 274.951 84.2517 274.942 84.2306 274.926C84.2095 274.91 84.1938 274.889 84.1855 274.864C84.1736 274.842 84.1674 274.817 84.1674 274.792C84.1674 274.767 84.1736 274.742 84.1855 274.719C84.2447 274.671 85.4884 273.436 86.4274 273.436C86.5398 273.434 86.6514 273.454 86.7549 273.496C86.8585 273.537 86.9516 273.6 87.0281 273.678C87.1123 273.745 87.1699 273.838 87.1915 273.941C87.213 274.043 87.1971 274.15 87.1465 274.243C86.9012 274.695 85.6068 274.953 84.7608 274.953ZM84.6508 274.671C85.4968 274.671 86.7235 274.421 86.9265 274.065C86.9265 274.065 86.9858 273.961 86.8504 273.831C86.8012 273.78 86.7408 273.74 86.6736 273.714C86.6064 273.687 86.5339 273.675 86.4612 273.678C85.7677 273.83 85.1374 274.176 84.6508 274.671Z" fill="#6D57E4"/>
<path d="M142.458 294.902C141.817 294.897 141.177 294.841 140.546 294.732C140.515 294.727 140.486 294.71 140.466 294.687C140.446 294.663 140.435 294.634 140.436 294.603C140.431 294.575 140.435 294.547 140.447 294.521C140.459 294.495 140.479 294.473 140.504 294.458C140.597 294.409 142.762 293.223 143.803 293.498C143.9 293.518 143.991 293.558 144.071 293.613C144.151 293.669 144.218 293.739 144.268 293.82C144.335 293.91 144.37 294.017 144.37 294.127C144.37 294.237 144.335 294.344 144.268 294.434C144.023 294.797 143.253 294.902 142.458 294.902ZM141.028 294.522C142.179 294.684 143.752 294.676 144.04 294.288C144.082 294.24 144.116 294.151 144.04 293.982C143.975 293.881 143.872 293.809 143.752 293.78C143.092 293.619 141.781 294.151 141.028 294.522Z" fill="#6D57E4"/>
<path d="M140.58 294.74C140.552 294.748 140.523 294.748 140.495 294.74C140.472 294.726 140.454 294.705 140.443 294.681C140.432 294.656 140.43 294.629 140.436 294.603C140.493 293.763 140.831 292.963 141.4 292.319C141.516 292.225 141.651 292.155 141.797 292.114C141.943 292.074 142.096 292.064 142.246 292.085C142.653 292.085 142.771 292.319 142.796 292.473C142.906 293.142 141.426 294.426 140.673 294.748L140.58 294.74ZM142.094 292.319C141.908 292.318 141.728 292.381 141.587 292.497C141.108 293.007 140.812 293.648 140.741 294.329C141.502 293.885 142.517 292.884 142.433 292.481C142.433 292.481 142.433 292.344 142.145 292.319H142.094Z" fill="#6D57E4"/>
<path d="M133.744 294.595H139.962L140.58 280.868H134.362L133.744 294.595Z" fill="#E4897B"/>
<path d="M78.3735 271.031L83.5679 274.275L95.0397 265.035L89.8368 261.783L78.3735 271.031Z" fill="#E4897B"/>
<path d="M84.4223 273.969L79.0249 269.748C78.9295 269.673 78.8099 269.633 78.6865 269.633C78.563 269.633 78.4434 269.673 78.3481 269.748L73.8981 273.081C73.7906 273.163 73.7038 273.266 73.6441 273.384C73.5844 273.502 73.5534 273.632 73.5534 273.763C73.5534 273.894 73.5844 274.023 73.6441 274.141C73.7038 274.259 73.7906 274.363 73.8981 274.445C75.8101 275.889 76.8168 276.503 79.1941 278.359C80.6576 279.496 84.2701 282.983 86.3089 284.556C88.3478 286.13 90.2174 284.435 89.5406 283.62C86.5035 279.948 85.3106 276.809 84.9638 274.864C84.9038 274.513 84.7113 274.194 84.4223 273.969Z" fill="black"/>
<path d="M139.92 293.909H133.152C133.028 293.91 132.909 293.95 132.812 294.023C132.715 294.096 132.647 294.198 132.619 294.313L131.392 299.582C131.361 299.71 131.361 299.843 131.392 299.97C131.423 300.098 131.484 300.217 131.571 300.319C131.657 300.421 131.767 300.503 131.891 300.558C132.016 300.614 132.152 300.641 132.289 300.639C134.734 300.599 138.27 300.462 141.35 300.462C144.945 300.462 148.058 300.647 152.271 300.647C154.809 300.647 155.537 298.186 154.463 297.968C149.607 296.951 145.63 296.846 141.434 294.369C140.984 294.085 140.46 293.925 139.92 293.909Z" fill="black"/>
<path d="M102.924 111.419C97.5353 113.84 94.4644 130.06 94.4644 130.06L107.637 135.072C109.565 130.581 111.123 125.954 112.298 121.232C114.108 113.759 108.44 108.917 102.924 111.419Z" fill="black"/>
<path d="M109.912 120.562C106.655 123.709 105.166 129.875 104.515 133.885L107.67 135.088C109.544 130.724 111.071 126.233 112.239 121.652C111.96 119.941 111.266 119.255 109.912 120.562Z" fill="black"/>
<path d="M138.862 111.306C138.862 111.306 145.478 118.44 139.235 162.549H105.995C105.767 157.707 108.973 133.942 104.049 111.008C107.723 110.328 111.439 109.881 115.174 109.668C119.88 109.401 124.597 109.401 129.303 109.668C132.529 109.978 135.725 110.525 138.862 111.306Z" fill="black"/>
<path d="M141.9 128.43L136.299 119.223C135.218 123.519 134.776 127.939 134.988 132.352C135.14 135.515 138.177 147.233 140.91 148.944C141.635 142.128 141.965 135.28 141.9 128.43Z" fill="black"/>
<path d="M142.678 117.609C143.524 121.531 144.37 125.549 145.275 129.487C146.18 133.425 147.119 137.38 148.211 141.197C148.49 142.141 148.752 143.109 149.057 144.013L149.285 144.707L149.395 145.054V145.014C149.336 144.941 149.268 144.933 149.319 145.014C149.667 145.376 150.111 145.641 150.605 145.78C151.405 146.064 152.228 146.283 153.067 146.434C157.067 147.039 161.116 147.29 165.165 147.184L165.968 151.574C164.835 151.921 163.777 152.171 162.66 152.422C161.544 152.672 160.444 152.882 159.319 153.043C156.991 153.413 154.63 153.564 152.272 153.495C150.96 153.461 149.656 153.299 148.38 153.011C146.757 152.672 145.232 151.997 143.913 151.034C143.052 150.37 142.341 149.546 141.823 148.613C141.688 148.371 141.57 148.096 141.46 147.862L141.307 147.483L140.994 146.676C140.563 145.651 140.208 144.642 139.818 143.634C138.389 139.599 137.196 135.524 136.147 131.456C135.098 127.389 134.193 123.33 133.44 119.158L142.678 117.609Z" fill="#E4897B"/>
<path d="M130.563 115.632C128.812 121.046 135.91 137.194 135.91 137.194L150.047 133.805C150.047 133.805 149.505 125.412 146.282 118.755C141.426 108.716 132.661 109.135 130.563 115.632Z" fill="black"/>
<path d="M165.046 147.184L172.085 147.015L168.701 154.003C168.701 154.003 165.833 154.366 163.481 150.679L161.002 147.854L163.853 147.313C164.246 147.235 164.645 147.191 165.046 147.184Z" fill="#E4897B"/>
<path d="M176.526 148.314L172.499 154.108L168.701 154.003L172.085 147.015L176.526 148.314Z" fill="#E4897B"/>
<path d="M140.58 280.868L140.258 287.946H134.04L134.362 280.868H140.58Z" fill="#CE6F64"/>
<path d="M89.8368 261.783L95.0397 265.035L89.1177 269.797L83.9233 266.553L89.8368 261.783Z" fill="#CE6F64"/>
<path d="M116.968 89.8567C117.34 95.7234 117.247 99.1853 120.352 102.195C125.022 106.739 132.627 104.051 134.099 98.1605C135.428 92.8828 134.599 84.1675 128.575 81.8272C127.246 81.3155 125.802 81.1343 124.38 81.3005C122.957 81.4668 121.602 81.9751 120.442 82.7777C119.282 83.5804 118.354 84.651 117.746 85.8892C117.139 87.1274 116.871 88.4926 116.968 89.8567Z" fill="#E4897B"/>
<path d="M109.726 88.8237C111.258 94.174 114.861 100.339 119.523 100.735C125.31 101.219 127.924 95.5135 128.685 89.6226C132.154 87.355 130.335 84.8614 133.812 84.5467C138.279 84.1432 136.849 76.3478 130.969 75.097C130.969 75.097 132.94 78.6074 128.804 76.832C124.869 75.0485 120.498 74.3257 116.164 74.7419C116.164 74.7419 121.443 77.2597 116.283 78.3814C111.122 79.5031 109.582 82.5373 111.96 84.3692C111.96 84.3772 108.72 85.3053 109.726 88.8237Z" fill="black"/>
<path d="M125.157 90.8331C125.271 92.2914 125.887 93.673 126.909 94.7631C128.262 96.1914 129.675 95.3038 129.912 93.5688C130.132 92.0113 129.683 89.3886 128.025 88.5978C126.367 87.8069 125.047 89.0739 125.157 90.8331Z" fill="#E4897B"/>
<path d="M127.441 162.549C127.441 162.549 133.499 204.391 128.727 221.16C121.164 247.71 92.2478 270.119 92.2478 270.119L82.4427 263.986C82.4427 263.986 107.07 245.063 110.081 222.83C112.789 202.874 105.995 178.737 105.995 162.541L127.441 162.549Z" fill="#6D57E4"/>
<path opacity="0.1" d="M127.441 162.549C127.441 162.549 133.499 204.391 128.727 221.16C121.164 247.71 92.2478 270.119 92.2478 270.119L82.4427 263.986C82.4427 263.986 107.07 245.063 110.081 222.83C112.789 202.874 105.995 178.737 105.995 162.541L127.441 162.549Z" fill="black"/>
<path d="M129.946 186.468C128.333 184.706 126.558 183.085 124.641 181.626C125.673 195.208 126.519 215.326 125.58 229.617C126.843 226.877 127.895 224.054 128.727 221.168C131.054 212.977 130.809 198.831 129.946 186.468Z" fill="#6D57E4"/>
<path opacity="0.3" d="M129.946 186.468C128.333 184.706 126.558 183.085 124.641 181.626C125.673 195.208 126.519 215.326 125.58 229.617C126.843 226.877 127.895 224.054 128.727 221.168C131.054 212.977 130.809 198.831 129.946 186.468Z" fill="black"/>
<path d="M96.1987 268.029C96.241 268.029 92.4002 270.45 92.4002 270.45L81.6898 263.752L85.0738 261.081L96.1987 268.029Z" fill="#6D57E4"/>
<path opacity="0.3" d="M96.1987 268.029C96.241 268.029 92.4002 270.45 92.4002 270.45L81.6898 263.752L85.0738 261.081L96.1987 268.029Z" fill="black"/>
<path d="M139.235 162.549C139.235 162.549 148.591 200.397 149.251 218.481C149.996 238.752 142.576 286.574 142.576 286.574H132.044C132.044 286.574 130.749 238.381 130.284 219.917C129.768 199.783 117.382 162.549 117.382 162.549H139.235Z" fill="#6D57E4"/>
<path opacity="0.1" d="M139.235 162.549C139.235 162.549 148.591 200.397 149.251 218.481C149.996 238.752 142.576 286.574 142.576 286.574H132.044C132.044 286.574 130.749 238.381 130.284 219.917C129.768 199.783 117.382 162.549 117.382 162.549H139.235Z" fill="black"/>
<path d="M144.598 282.579C144.649 282.579 144.006 286.743 144.006 286.743H131.198L130.851 283.023L144.598 282.579Z" fill="#6D57E4"/>
<path opacity="0.3" d="M144.598 282.579C144.649 282.579 144.006 286.743 144.006 286.743H131.198L130.851 283.023L144.598 282.579Z" fill="black"/>
<path d="M301.176 126.179C301.895 126.824 302.462 127.373 303.054 127.986C303.646 128.6 304.205 129.197 304.746 129.818C305.846 131.053 306.878 132.352 307.876 133.659C309.87 136.282 311.644 139.05 313.181 141.939L313.494 142.528C313.647 142.813 313.774 143.11 313.874 143.416C314.079 144.006 314.204 144.619 314.247 145.24C314.302 146.334 314.144 147.428 313.781 148.467C313.163 150.194 312.245 151.809 311.066 153.245C308.94 155.849 306.433 158.148 303.621 160.072L301.514 157.764C302.504 156.658 303.536 155.472 304.458 154.286C305.397 153.136 306.245 151.923 306.996 150.654C307.698 149.548 308.218 148.345 308.536 147.088C308.645 146.638 308.666 146.172 308.595 145.716C308.565 145.562 308.514 145.413 308.443 145.272C308.411 145.21 308.375 145.151 308.333 145.094L308.062 144.659C306.431 142.121 304.66 139.667 302.758 137.307C301.819 136.121 300.812 134.983 299.797 133.861C299.298 133.296 298.782 132.748 298.266 132.199C297.75 131.65 297.191 131.101 296.743 130.674L301.176 126.179Z" fill="#E4897B"/>
<path d="M302.326 157.086L296.007 156.101L299.315 161.379C299.315 161.379 303.384 161.242 304.543 158.958L302.326 157.086Z" fill="#E4897B"/>
<path d="M291.337 158.539L294.349 162.824L299.315 161.379L296.007 156.101L291.337 158.539Z" fill="#E4897B"/>
<path d="M302.022 294.829C301.592 294.864 301.164 294.753 300.812 294.514C300.706 294.419 300.628 294.299 300.585 294.166C300.542 294.033 300.536 293.892 300.567 293.756C300.573 293.669 300.604 293.586 300.656 293.515C300.708 293.444 300.78 293.387 300.863 293.352C301.599 293.038 303.528 294.216 303.748 294.353C303.773 294.368 303.792 294.39 303.803 294.416C303.814 294.442 303.815 294.471 303.807 294.498C303.804 294.526 303.792 294.552 303.772 294.572C303.752 294.592 303.726 294.606 303.697 294.611C303.149 294.744 302.587 294.817 302.022 294.829ZM301.176 293.578C301.114 293.569 301.052 293.569 300.99 293.578C300.953 293.595 300.921 293.621 300.899 293.654C300.876 293.687 300.864 293.725 300.863 293.764C300.841 293.854 300.843 293.948 300.87 294.037C300.896 294.126 300.946 294.207 301.015 294.272C301.337 294.547 302.166 294.587 303.274 294.377C302.639 293.977 301.925 293.705 301.176 293.578Z" fill="#6D57E4"/>
<path d="M303.714 294.603H303.638C303.037 294.272 301.878 292.989 302.022 292.287C302.049 292.176 302.114 292.077 302.205 292.004C302.297 291.932 302.411 291.889 302.53 291.884C302.644 291.868 302.76 291.877 302.87 291.911C302.98 291.944 303.081 292.001 303.164 292.077C303.858 292.658 303.866 294.401 303.866 294.498C303.865 294.523 303.857 294.546 303.844 294.568C303.83 294.589 303.812 294.606 303.79 294.619L303.714 294.603ZM302.631 292.182H302.563C302.377 292.182 302.335 292.279 302.318 292.352C302.233 292.763 302.953 293.748 303.553 294.208C303.568 293.531 303.364 292.866 302.969 292.303C302.919 292.258 302.859 292.224 302.793 292.203C302.727 292.182 302.658 292.175 302.589 292.182H302.631Z" fill="#6D57E4"/>
<path d="M273.19 294.829C272.65 294.878 272.109 294.747 271.659 294.458C271.558 294.372 271.479 294.264 271.431 294.143C271.382 294.023 271.365 293.892 271.38 293.764C271.385 293.685 271.411 293.609 271.456 293.543C271.5 293.477 271.561 293.422 271.634 293.385C272.42 292.965 274.941 294.192 275.229 294.345C275.255 294.361 275.277 294.384 275.29 294.411C275.303 294.438 275.309 294.468 275.305 294.498C275.3 294.526 275.286 294.553 275.265 294.573C275.244 294.593 275.216 294.606 275.187 294.611C274.53 294.744 273.862 294.817 273.19 294.829ZM272.065 293.578C271.968 293.572 271.872 293.592 271.786 293.635C271.755 293.648 271.73 293.67 271.712 293.697C271.694 293.724 271.684 293.756 271.684 293.788C271.671 293.872 271.68 293.958 271.71 294.038C271.739 294.118 271.788 294.19 271.854 294.248C272.243 294.579 273.283 294.635 274.688 294.409C273.869 293.993 272.982 293.712 272.065 293.578Z" fill="#6D57E4"/>
<path d="M275.161 294.603H275.094C274.341 294.28 272.843 292.989 272.962 292.287C272.962 292.126 273.114 291.924 273.529 291.884C273.68 291.868 273.833 291.882 273.979 291.925C274.124 291.968 274.259 292.039 274.375 292.134C275.17 292.763 275.322 294.393 275.322 294.466C275.326 294.491 275.322 294.516 275.311 294.538C275.301 294.561 275.284 294.581 275.263 294.595C275.231 294.608 275.195 294.611 275.161 294.603ZM273.647 292.182H273.554C273.283 292.182 273.266 292.311 273.258 292.344C273.19 292.755 274.206 293.78 274.95 294.224C274.877 293.534 274.581 292.883 274.104 292.36C273.976 292.255 273.815 292.193 273.647 292.182Z" fill="#6D57E4"/>
<path d="M285.161 107.626C284.916 111.274 284.256 118.682 287.192 120.732C287.192 120.732 286.659 124.468 279.73 125.339C272.116 126.284 275.593 122.184 275.593 122.184C279.628 120.715 279.112 117.786 278.013 115.107L285.161 107.626Z" fill="#E4897B"/>
<path d="M269.4 101.179C269.358 101.179 269.317 101.17 269.279 101.153C269.241 101.137 269.207 101.112 269.18 101.082C268.938 100.808 268.632 100.592 268.287 100.452C267.942 100.312 267.567 100.251 267.192 100.275C267.153 100.282 267.112 100.281 267.073 100.272C267.034 100.264 266.997 100.247 266.964 100.225C266.932 100.202 266.904 100.173 266.884 100.14C266.863 100.107 266.85 100.071 266.845 100.033C266.836 99.9568 266.858 99.8803 266.907 99.8199C266.956 99.7595 267.028 99.7199 267.108 99.7099C267.585 99.6714 268.066 99.7437 268.507 99.9208C268.949 100.098 269.34 100.374 269.646 100.727C269.682 100.769 269.706 100.82 269.713 100.874C269.721 100.928 269.712 100.983 269.688 101.033C269.664 101.083 269.626 101.125 269.578 101.155C269.53 101.185 269.474 101.202 269.417 101.203L269.4 101.179Z" fill="black"/>
<path d="M268.08 104.753C267.78 105.911 267.316 107.024 266.701 108.062C266.984 108.207 267.296 108.291 267.617 108.308C267.937 108.324 268.257 108.274 268.554 108.159L268.08 104.753Z" fill="#DE5753"/>
<path d="M268.419 103.866C268.487 104.35 268.275 104.77 267.945 104.818C267.615 104.866 267.285 104.495 267.226 104.011C267.167 103.527 267.37 103.107 267.7 103.067C268.03 103.027 268.36 103.349 268.419 103.866Z" fill="black"/>
<path d="M267.852 103.075L266.591 102.889C266.591 102.889 267.336 103.721 267.852 103.075Z" fill="black"/>
<path d="M282.133 294.474H275.788L275.365 280.473H281.71L282.133 294.474Z" fill="#E4897B"/>
<path d="M310.939 294.474H304.594L302.555 280.473H308.9L310.939 294.474Z" fill="#E4897B"/>
<path d="M304.205 293.796H311.328C311.449 293.795 311.567 293.836 311.659 293.912C311.751 293.988 311.811 294.093 311.827 294.208L312.673 299.59C312.689 299.726 312.674 299.863 312.63 299.993C312.586 300.123 312.513 300.242 312.418 300.344C312.322 300.445 312.204 300.526 312.073 300.581C311.943 300.636 311.801 300.664 311.658 300.663C309.179 300.623 307.978 300.486 304.848 300.486C302.919 300.486 300.101 300.672 297.445 300.672C294.789 300.672 294.645 298.162 295.753 297.936C300.719 296.919 301.506 295.515 303.172 294.167C303.463 293.937 303.827 293.806 304.205 293.796Z" fill="black"/>
<path d="M275.576 293.796H282.691C282.813 293.795 282.932 293.836 283.025 293.911C283.119 293.987 283.18 294.092 283.198 294.208L284.044 299.59C284.06 299.726 284.045 299.863 284.001 299.993C283.957 300.123 283.885 300.242 283.789 300.344C283.693 300.445 283.576 300.526 283.445 300.581C283.314 300.636 283.172 300.664 283.029 300.664C280.55 300.623 279.349 300.486 276.219 300.486C274.29 300.486 270.297 300.672 267.64 300.672C264.984 300.672 264.84 298.162 265.948 297.936C270.914 296.919 272.869 295.515 274.544 294.167C274.835 293.937 275.198 293.806 275.576 293.796Z" fill="black"/>
<path d="M275.365 280.473L275.585 287.695H281.93L281.71 280.473H275.365Z" fill="#CE6F64"/>
<path d="M308.9 280.473H302.555L303.612 287.695H309.949L308.9 280.473Z" fill="#CE6F64"/>
<path d="M285.246 100.073C285.677 106.061 285.99 108.587 283.266 112.032C279.163 117.205 271.363 116.406 269.062 110.661C266.989 105.488 266.634 96.5707 272.403 93.4397C273.673 92.7458 275.107 92.3727 276.57 92.3559C278.032 92.3391 279.476 92.679 280.762 93.3435C282.048 94.008 283.136 94.975 283.92 96.1527C284.705 97.3304 285.161 98.6799 285.246 100.073Z" fill="#E4897B"/>
<path d="M288.9 105.633C292.42 107.505 295.034 102.889 295.034 102.889C295.034 102.889 288.723 103.543 289.29 99.96C290.034 95.2069 286.464 89.429 277.513 90.1714C277.014 90.2117 276.54 90.2682 276.075 90.3408C275.138 89.9172 274.078 89.8078 273.068 90.0304C272.058 90.2531 271.156 90.7947 270.508 91.5674C267.97 91.7692 264.544 94.6582 266.871 98.4752C267.034 98.0366 267.287 97.6334 267.615 97.2889C267.81 99.5243 269.857 103.075 272.412 103.309C272.962 106.367 270.83 109.91 271.566 113.106C272.657 117.714 280.804 118.755 280.804 118.755C280.523 118.179 280.419 117.54 280.503 116.91C280.586 116.28 280.855 115.686 281.278 115.196C286.811 117.617 290.457 115.252 290.457 115.252C286.684 113.913 287.826 111.524 287.826 111.524C289.129 112.076 290.605 112.124 291.945 111.659C293.284 111.194 294.382 110.252 295.009 109.03C293.755 109.087 292.512 108.797 291.428 108.194C290.344 107.591 289.466 106.701 288.9 105.633Z" fill="black"/>
<path d="M274.62 104.229C274.635 104.804 274.53 105.375 274.313 105.911C274.095 106.447 273.768 106.937 273.351 107.352C272.234 108.457 270.864 107.683 270.491 106.271C270.162 104.996 270.348 102.889 271.803 102.308C272.123 102.188 272.47 102.146 272.811 102.187C273.153 102.227 273.478 102.348 273.758 102.539C274.038 102.73 274.263 102.984 274.414 103.28C274.565 103.575 274.635 103.901 274.62 104.229Z" fill="#E4897B"/>
<path d="M279.89 160.015C279.89 160.015 281.498 199.848 285.322 223.234C288.401 242.133 302.081 286.291 302.081 286.291H310.727C310.727 286.291 303.595 243.642 302.03 224.961C298.071 177.68 308.35 167.528 298.646 157.683L279.89 160.015Z" fill="black"/>
<path d="M287.115 172.612C287.115 172.612 283.207 171.967 280.923 179.068C281.769 192.52 283.215 210.371 285.322 223.234C285.787 226.099 286.498 229.553 287.369 233.337C285.719 210.613 287.115 172.612 287.115 172.612Z" fill="black"/>
<path d="M273.148 160.855C273.148 160.855 266.025 204.924 266.439 223.363C266.871 242.545 274.239 286.307 274.239 286.307H282.809C282.809 286.307 281.456 243.683 282.209 224.848C283.055 204.31 291.844 158.539 291.844 158.539L273.148 160.855Z" fill="black"/>
<path d="M311.979 286.679H300.482L299.585 282.999L311.895 283.079L311.979 286.679Z" fill="#6D57E4"/>
<path opacity="0.2" d="M311.979 286.679H300.482L299.585 282.999L311.895 283.079L311.979 286.679Z" fill="black"/>
<path d="M298.215 120.74C301.523 121.046 306.548 130.012 306.548 130.012L298.198 136.121C298.198 136.121 291.286 130.335 292.107 127.083C292.961 123.701 295.042 120.457 298.215 120.74Z" fill="#6D57E4"/>
<path opacity="0.1" d="M298.215 120.74C301.523 121.046 306.548 130.012 306.548 130.012L298.198 136.121C298.198 136.121 291.286 130.335 292.107 127.083C292.961 123.701 295.042 120.457 298.215 120.74Z" fill="black"/>
<path d="M295.719 124.597C294.876 124.38 294.003 124.288 293.13 124.323C292.686 125.205 292.343 126.13 292.107 127.083C291.261 130.31 298.198 136.121 298.198 136.121L298.816 135.669L295.719 124.597Z" fill="#6D57E4"/>
<path opacity="0.3" d="M295.719 124.597C294.876 124.38 294.003 124.288 293.13 124.323C292.686 125.205 292.343 126.13 292.107 127.083C291.261 130.31 298.198 136.121 298.198 136.121L298.816 135.669L295.719 124.597Z" fill="black"/>
<path d="M270.314 133.207C267.903 139.026 265.365 144.941 263.343 150.775C263.207 151.147 263.097 151.502 262.979 151.865L262.691 152.761C262.613 153.024 262.613 153.304 262.691 153.568C263.169 154.576 263.927 155.442 264.883 156.069C267.412 157.8 270.168 159.208 273.08 160.257L272.319 163.227C268.736 162.776 265.271 161.699 262.099 160.048C260.147 159.053 258.557 157.516 257.539 155.641C256.955 154.443 256.752 153.108 256.956 151.8C256.975 151.64 257.003 151.481 257.04 151.324L257.125 150.985L257.269 150.372C257.37 149.96 257.472 149.565 257.582 149.161C258.428 145.934 259.51 142.867 260.653 139.825C261.795 136.782 262.988 133.78 264.333 130.787L270.314 133.207Z" fill="#E4897B"/>
<path d="M265.179 125.041C265.179 125.041 262.319 126.421 273.148 160.855L298.68 157.675C296.887 147.814 296.041 141.705 298.215 120.74C294.554 120.49 290.878 120.49 287.217 120.74C283.319 120.956 279.443 121.441 275.618 122.192C270.72 123.233 265.179 125.041 265.179 125.041Z" fill="#6D57E4"/>
<path opacity="0.1" d="M265.179 125.041C265.179 125.041 262.319 126.421 273.148 160.855L298.68 157.675C296.887 147.814 296.041 141.705 298.215 120.74C294.554 120.49 290.878 120.49 287.217 120.74C283.319 120.956 279.443 121.441 275.618 122.192C270.72 123.233 265.179 125.041 265.179 125.041Z" fill="black"/>
<path d="M298.866 156.198L300.33 158.224C300.44 158.385 300.254 158.579 299.966 158.619L273.19 161.96C272.962 161.96 272.75 161.904 272.716 161.766L272.192 159.612C272.15 159.467 272.336 159.313 272.59 159.281L298.443 156.053C298.521 156.041 298.6 156.048 298.674 156.074C298.748 156.099 298.814 156.142 298.866 156.198Z" fill="#6D57E4"/>
<path opacity="0.2" d="M298.866 156.198L300.33 158.224C300.44 158.385 300.254 158.579 299.966 158.619L273.19 161.96C272.962 161.96 272.75 161.904 272.716 161.766L272.192 159.612C272.15 159.467 272.336 159.313 272.59 159.281L298.443 156.053C298.521 156.041 298.6 156.048 298.674 156.074C298.748 156.099 298.814 156.142 298.866 156.198Z" fill="black"/>
<path d="M295.77 159.386L296.464 159.297C296.599 159.297 296.692 159.2 296.675 159.12L295.965 156.327C295.938 156.28 295.894 156.242 295.842 156.222C295.79 156.201 295.731 156.199 295.677 156.214L294.983 156.295C294.839 156.295 294.746 156.392 294.772 156.481L295.482 159.265C295.499 159.354 295.635 159.402 295.77 159.386Z" fill="black"/>
<path d="M278.985 161.452L279.679 161.363C279.814 161.363 279.916 161.266 279.891 161.185L279.18 158.393C279.152 158.346 279.109 158.309 279.057 158.287C279.005 158.265 278.948 158.26 278.892 158.272L278.199 158.361C278.063 158.361 277.962 158.458 277.987 158.539L278.698 161.331C278.715 161.452 278.85 161.5 278.985 161.452Z" fill="black"/>
<path d="M266.371 136.726C267.074 139.841 268.064 143.787 269.51 148.782L269.823 136.121L266.371 136.726Z" fill="#6D57E4"/>
<path opacity="0.3" d="M266.371 136.726C267.074 139.841 268.064 143.787 269.51 148.782L269.823 136.121L266.371 136.726Z" fill="black"/>
<path d="M265.179 125.041C262.006 126.259 259.257 136.613 259.257 136.613L270.17 141.681C270.17 141.681 275.441 129.019 273.08 126.55C270.72 124.081 268.833 123.645 265.179 125.041Z" fill="#6D57E4"/>
<path opacity="0.1" d="M265.179 125.041C262.006 126.259 259.257 136.613 259.257 136.613L270.17 141.681C270.17 141.681 275.441 129.019 273.08 126.55C270.72 124.081 268.833 123.645 265.179 125.041Z" fill="black"/>
<path d="M284.273 286.679H272.776L271.879 282.999L284.679 283.079L284.273 286.679Z" fill="#6D57E4"/>
<path opacity="0.2" d="M284.273 286.679H272.776L271.879 282.999L284.679 283.079L284.273 286.679Z" fill="black"/>
<path d="M273.258 159.257L272.336 158.894C272.109 158.806 271.862 158.777 271.62 158.809C271.377 158.842 271.148 158.935 270.956 159.079C270.763 159.223 270.614 159.413 270.524 159.63C270.433 159.847 270.405 160.083 270.441 160.314L271.109 164.518C271.141 164.729 271.222 164.93 271.345 165.107C271.469 165.284 271.632 165.433 271.823 165.542C272.014 165.652 272.228 165.72 272.45 165.741C272.672 165.762 272.896 165.736 273.106 165.664C273.441 165.548 273.755 165.382 274.036 165.172C274.342 164.93 274.584 164.623 274.743 164.275C274.902 163.927 274.973 163.549 274.95 163.171L274.857 161.428C274.841 160.957 274.681 160.5 274.397 160.115C274.113 159.729 273.717 159.431 273.258 159.257Z" fill="#E4897B"/>
</svg>
